%
M48
M72
T01C0.01378
T02C0.01575
T03C0.01772
T04C0.02165
T05C0.02362
T06C0.02559
T07C0.02756
T08C0.04000
T09C0.05200
T10C0.06200
%
T01
X172400Y102537
X203600Y73537
X236600Y47337
X219800Y36937
X177800Y38937
X274200Y79937
X317200Y85737
X276150Y192737
X323450Y206437
X325650Y221637
T02
X348050Y212785
X353636Y210241
X356850Y180437
X341450Y178637
X324650Y173037
X357750Y161237
X360800Y111737
X315000Y95137
X351000Y74737
X370200Y40337
X270160Y43557
X264390Y36707
X263140Y54757
X247260Y65047
X249710Y82337
X237420Y82157
X230180Y83047
X213770Y81527
X213970Y74537
X225400Y107937
X228400Y130737
X269550Y128687
X227200Y31937
T03
X188550Y33737
X167200Y33737
X353000Y111537
X367600Y57337
X297050Y222875
T04
X283200Y163337
X237400Y157337
X288200Y92137
X279600Y45937
X271600Y30619
X312000Y31137
T05
X243400Y106937
T06
X291090Y78407
X198150Y68237
X225400Y149537
X233200Y184137
X200400Y203137
X200600Y216537
T07
X347250Y157037
T08
X159600Y42537
X159600Y52537
X159600Y62537
X192850Y57887
X192850Y47887
X215400Y47537
X225400Y47537
X273050Y136487
X283050Y136487
X293050Y136487
X303050Y136487
X313050Y136487
X323050Y136487
X344650Y136587
X344650Y146587
X305100Y202187
X295100Y202187
X283400Y212987
X273400Y212987
X182850Y154887
X182850Y144887
T09
X180800Y174737
X250000Y132337
X277400Y120937
X289400Y121137
X300200Y121137
X294800Y112137
X306200Y112337
X283200Y112137
X262370Y107997
X251200Y105337
X219290Y90317
X246800Y34537
X338000Y48737
X340000Y58537
X347000Y65737
X342450Y116287
X260300Y175037
T10
X161800Y155637
X161800Y136937
X161800Y118237
M30
