%
M48
M72
T01C0.01378
T02C0.01575
T03C0.01772
T04C0.02165
T05C0.02362
T06C0.02559
T07C0.03150
T08C0.04000
T09C0.05039
T10C0.05200
T11C0.06200
%
T01
X172400Y102537
X203600Y73537
X203000Y47337
X219800Y36937
X236600Y47337
X274200Y79937
X317200Y85737
X177800Y38937
X314000Y206737
X316200Y221937
T02
X338600Y213085
X344186Y210541
X332000Y178937
X315200Y173337
X228400Y130737
X225400Y107937
X230180Y83047
X237420Y82157
X249710Y82337
X247260Y65047
X263140Y54757
X270160Y43557
X264390Y36707
X227200Y31937
X188000Y30324
X213970Y74537
X213770Y81527
X315000Y95137
X351000Y74737
X360800Y111737
X370200Y40337
T03
X367600Y57337
X353000Y111537
X287600Y223175
T04
X276800Y194537
X283200Y163337
X237400Y157337
X288200Y92137
X279600Y45937
X271600Y30619
X312000Y31137
X355000Y162337
T05
X243400Y106937
T06
X291090Y78407
X207000Y66567
X225400Y149537
X233200Y184137
X200400Y203137
X200600Y216537
T07
X200400Y68537
T08
X190000Y56537
X190000Y46537
X215400Y47537
X225400Y47537
X159600Y52537
X159600Y42537
X159600Y62537
X274000Y137137
X284000Y137137
X294000Y137137
X304000Y137137
X314000Y137137
X351400Y140937
X351400Y150937
X292800Y199937
X292800Y209937
X279000Y210537
X279000Y220537
X181200Y159137
X181200Y149137
T09
X157800Y31737
X371000Y31337
X369400Y222337
T10
X266600Y174137
X250000Y132337
X256140Y115847
X262370Y107997
X251200Y105337
X277400Y120937
X289400Y121137
X300200Y121137
X294800Y112137
X306200Y112337
X321000Y124537
X283200Y112137
X219290Y90317
X246800Y34537
X338000Y48737
X340000Y58537
X347000Y65737
X180800Y174737
T11
X161800Y155637
X161800Y136937
X161800Y118237
M30
