G75*
%MOIN*%
%OFA0B0*%
%FSLAX25Y25*%
%IPPOS*%
%LPD*%
%AMOC8*
5,1,8,0,0,1.08239X$1,22.5*
%
%ADD10C,0.05839*%
%ADD11C,0.08200*%
%ADD12C,0.10100*%
%ADD13C,0.06800*%
%ADD14OC8,0.09300*%
%ADD15C,0.04172*%
%ADD16C,0.04565*%
%ADD17C,0.03975*%
%ADD18C,0.04959*%
%ADD19C,0.03778*%
%ADD20C,0.04762*%
%ADD21C,0.05550*%
D10*
X0157800Y0031737D03*
X0371000Y0031337D03*
X0369400Y0222337D03*
D11*
X0292800Y0209937D03*
X0292800Y0199937D03*
X0279000Y0210537D03*
X0279000Y0220537D03*
X0181200Y0159137D03*
X0181200Y0149137D03*
X0159600Y0062537D03*
X0159600Y0052537D03*
X0159600Y0042537D03*
X0190000Y0046537D03*
X0190000Y0056537D03*
X0215400Y0047537D03*
X0225400Y0047537D03*
X0351400Y0140937D03*
X0351400Y0150937D03*
D12*
X0161800Y0155637D03*
X0161800Y0136937D03*
X0161800Y0118237D03*
D13*
X0274000Y0134137D02*
X0274000Y0140137D01*
X0284000Y0140137D02*
X0284000Y0134137D01*
X0294000Y0134137D02*
X0294000Y0140137D01*
X0304000Y0140137D02*
X0304000Y0134137D01*
X0314000Y0134137D02*
X0314000Y0140137D01*
D14*
X0321000Y0124537D03*
X0306200Y0112337D03*
X0294800Y0112137D03*
X0283200Y0112137D03*
X0277400Y0120937D03*
X0289400Y0121137D03*
X0300200Y0121137D03*
X0262370Y0107997D03*
X0256140Y0115847D03*
X0251200Y0105337D03*
X0219290Y0090317D03*
X0250000Y0132337D03*
X0266600Y0174137D03*
X0180800Y0174737D03*
X0347000Y0065737D03*
X0340000Y0058537D03*
X0338000Y0048737D03*
X0246800Y0034537D03*
D15*
X0367600Y0057337D03*
X0353000Y0111537D03*
X0287600Y0223175D03*
D16*
X0276800Y0194537D03*
X0283200Y0163337D03*
X0237400Y0157337D03*
X0288200Y0092137D03*
X0279600Y0045937D03*
X0271600Y0030619D03*
X0312000Y0031137D03*
X0355000Y0162337D03*
D17*
X0332000Y0178937D03*
X0315200Y0173337D03*
X0344186Y0210541D03*
X0338600Y0213085D03*
X0228400Y0130737D03*
X0225400Y0107937D03*
X0230180Y0083047D03*
X0237420Y0082157D03*
X0249710Y0082337D03*
X0247260Y0065047D03*
X0263140Y0054757D03*
X0270160Y0043557D03*
X0264390Y0036707D03*
X0227200Y0031937D03*
X0188000Y0030324D03*
X0213970Y0074537D03*
X0213770Y0081527D03*
X0315000Y0095137D03*
X0351000Y0074737D03*
X0360800Y0111737D03*
X0370200Y0040337D03*
D18*
X0291090Y0078407D03*
X0207000Y0066567D03*
X0225400Y0149537D03*
X0233200Y0184137D03*
X0200400Y0203137D03*
X0200600Y0216537D03*
D19*
X0314000Y0206737D03*
X0316200Y0221937D03*
X0172400Y0102537D03*
X0203600Y0073537D03*
X0203000Y0047337D03*
X0219800Y0036937D03*
X0236600Y0047337D03*
X0274200Y0079937D03*
X0317200Y0085737D03*
X0177800Y0038937D03*
D20*
X0243400Y0106937D03*
D21*
X0200400Y0068537D03*
M02*
