G75*
%MOIN*%
%OFA0B0*%
%FSLAX25Y25*%
%IPPOS*%
%LPD*%
%AMOC8*
5,1,8,0,0,1.08239X$1,22.5*
%
%ADD10R,0.04331X0.03937*%
%ADD11R,0.03268X0.02480*%
%ADD12C,0.01181*%
%ADD13C,0.07400*%
%ADD14R,0.03543X0.03150*%
%ADD15R,0.03937X0.04331*%
%ADD16C,0.09300*%
%ADD17R,0.08800X0.04800*%
%ADD18R,0.08661X0.14173*%
%ADD19R,0.04528X0.01142*%
%ADD20R,0.09094X0.09685*%
%ADD21R,0.35827X0.42913*%
%ADD22R,0.09843X0.04134*%
%ADD23R,0.09449X0.09449*%
%ADD24R,0.03937X0.05512*%
%ADD25R,0.05118X0.05906*%
%ADD26R,0.09843X0.07677*%
%ADD27R,0.05512X0.03937*%
%ADD28R,0.05906X0.05118*%
%ADD29R,0.12598X0.07087*%
%ADD30R,0.07087X0.06299*%
%ADD31R,0.02717X0.03898*%
%ADD32R,0.05900X0.03900*%
%ADD33R,0.05900X0.12900*%
%ADD34R,0.05906X0.03937*%
%ADD35R,0.03937X0.05906*%
%ADD36R,0.23622X0.23622*%
%ADD37R,0.06299X0.07087*%
%ADD38C,0.06000*%
%ADD39OC8,0.08500*%
%ADD40R,0.01575X0.01575*%
%ADD41R,0.03937X0.02362*%
%ADD42R,0.02362X0.03937*%
%ADD43C,0.00197*%
%ADD44C,0.03200*%
%ADD45C,0.03372*%
%ADD46C,0.01600*%
%ADD47C,0.03765*%
%ADD48C,0.01200*%
%ADD49C,0.02000*%
%ADD50C,0.03175*%
%ADD51C,0.00800*%
%ADD52C,0.04159*%
%ADD53C,0.02978*%
%ADD54C,0.00787*%
%ADD55C,0.03962*%
%ADD56C,0.04000*%
%ADD57C,0.04750*%
%ADD58C,0.05000*%
%ADD59C,0.02500*%
D10*
X0178454Y0102737D03*
X0185146Y0102737D03*
X0217454Y0114537D03*
X0224146Y0114537D03*
X0224146Y0121937D03*
X0217454Y0121937D03*
X0230454Y0106737D03*
X0237146Y0106737D03*
X0225346Y0081477D03*
X0218654Y0081477D03*
X0218774Y0074507D03*
X0225466Y0074507D03*
X0203746Y0078737D03*
X0197054Y0078737D03*
X0203600Y0060083D03*
X0203600Y0053390D03*
X0219874Y0058277D03*
X0226566Y0058277D03*
X0241314Y0055567D03*
X0248006Y0055567D03*
X0353654Y0040337D03*
X0360346Y0040337D03*
X0362546Y0049737D03*
X0355854Y0049737D03*
X0356054Y0057337D03*
X0362746Y0057337D03*
X0362746Y0065137D03*
X0356054Y0065137D03*
X0356054Y0072737D03*
X0362746Y0072737D03*
X0244146Y0162737D03*
X0237454Y0162737D03*
X0230346Y0160937D03*
X0223654Y0160937D03*
X0224254Y0169337D03*
X0230946Y0169337D03*
X0305454Y0197737D03*
X0312146Y0197737D03*
X0335254Y0217937D03*
X0341946Y0217937D03*
D11*
X0192800Y0120464D03*
X0192800Y0111409D03*
D12*
X0228022Y0097211D02*
X0230778Y0097211D01*
X0228022Y0097211D02*
X0228022Y0099967D01*
X0230778Y0099967D01*
X0230778Y0097211D01*
X0230778Y0098391D02*
X0228022Y0098391D01*
X0228022Y0099571D02*
X0230778Y0099571D01*
X0235622Y0097211D02*
X0238378Y0097211D01*
X0235622Y0097211D02*
X0235622Y0099967D01*
X0238378Y0099967D01*
X0238378Y0097211D01*
X0238378Y0098391D02*
X0235622Y0098391D01*
X0235622Y0099571D02*
X0238378Y0099571D01*
X0238378Y0090306D02*
X0235622Y0090306D01*
X0235622Y0093062D01*
X0238378Y0093062D01*
X0238378Y0090306D01*
X0238378Y0091486D02*
X0235622Y0091486D01*
X0235622Y0092666D02*
X0238378Y0092666D01*
X0230778Y0090306D02*
X0228022Y0090306D01*
X0228022Y0093062D01*
X0230778Y0093062D01*
X0230778Y0090306D01*
X0230778Y0091486D02*
X0228022Y0091486D01*
X0228022Y0092666D02*
X0230778Y0092666D01*
X0230622Y0113106D02*
X0233378Y0113106D01*
X0230622Y0113106D02*
X0230622Y0115862D01*
X0233378Y0115862D01*
X0233378Y0113106D01*
X0233378Y0114286D02*
X0230622Y0114286D01*
X0230622Y0115466D02*
X0233378Y0115466D01*
X0233378Y0120011D02*
X0230622Y0120011D01*
X0230622Y0122767D01*
X0233378Y0122767D01*
X0233378Y0120011D01*
X0233378Y0121191D02*
X0230622Y0121191D01*
X0230622Y0122371D02*
X0233378Y0122371D01*
D13*
X0181200Y0149137D03*
X0181200Y0159137D03*
X0279000Y0210537D03*
X0279000Y0220537D03*
X0292800Y0209937D03*
X0292800Y0199937D03*
X0351400Y0150937D03*
X0351400Y0140937D03*
X0225400Y0047537D03*
X0215400Y0047537D03*
X0190000Y0046537D03*
X0190000Y0056537D03*
X0159600Y0052537D03*
X0159600Y0042537D03*
X0159600Y0062537D03*
D14*
X0184937Y0112196D03*
X0176669Y0115937D03*
X0184937Y0119677D03*
D15*
X0219320Y0105133D03*
X0219320Y0098440D03*
X0271000Y0150390D03*
X0271000Y0157083D03*
X0361800Y0158483D03*
X0361800Y0151790D03*
X0236200Y0038283D03*
X0236200Y0031590D03*
D16*
X0161800Y0118237D03*
X0161800Y0136937D03*
X0161800Y0155637D03*
D17*
X0187200Y0087837D03*
X0187200Y0078737D03*
X0187200Y0069637D03*
D18*
X0162799Y0078737D03*
D19*
X0304684Y0205180D03*
X0304684Y0207739D03*
X0304684Y0210298D03*
X0304684Y0212857D03*
X0304684Y0215416D03*
X0304684Y0217975D03*
X0304684Y0220534D03*
X0304684Y0223093D03*
X0327716Y0223093D03*
X0327716Y0220534D03*
X0327716Y0217975D03*
X0327716Y0215416D03*
X0327716Y0212857D03*
X0327716Y0210298D03*
X0327716Y0207739D03*
X0327716Y0205180D03*
D20*
X0316200Y0214137D03*
D21*
X0172200Y0203137D03*
D22*
X0211176Y0203137D03*
X0211176Y0209830D03*
X0211176Y0216522D03*
X0211176Y0196444D03*
X0211176Y0189751D03*
D23*
X0224780Y0204337D03*
X0261000Y0204337D03*
D24*
X0245400Y0178867D03*
X0241660Y0170206D03*
X0249140Y0170206D03*
D25*
X0231540Y0177537D03*
X0224060Y0177537D03*
X0200340Y0174937D03*
X0192860Y0174937D03*
X0193060Y0164937D03*
X0200540Y0164937D03*
X0218480Y0066757D03*
X0225960Y0066757D03*
D26*
X0279000Y0173133D03*
X0291600Y0173533D03*
X0291600Y0185541D03*
X0279000Y0185141D03*
D27*
X0203331Y0038677D03*
X0194669Y0034937D03*
X0203331Y0031196D03*
D28*
X0178000Y0045196D03*
X0178000Y0052677D03*
X0263200Y0148596D03*
X0263200Y0156077D03*
X0315200Y0178996D03*
X0325800Y0178996D03*
X0325800Y0186477D03*
X0315200Y0186477D03*
D29*
X0360800Y0104760D03*
X0360800Y0082713D03*
D30*
X0303800Y0174825D03*
X0303800Y0185848D03*
D31*
X0356860Y0126815D03*
X0360600Y0126815D03*
X0364340Y0126815D03*
X0364340Y0116619D03*
X0356860Y0116619D03*
D32*
X0214000Y0131487D03*
X0214000Y0140537D03*
X0214000Y0149587D03*
D33*
X0238800Y0140537D03*
D34*
X0255983Y0095778D03*
X0255983Y0090778D03*
X0255983Y0085778D03*
X0255983Y0080778D03*
X0255983Y0075778D03*
X0255983Y0070778D03*
X0255983Y0065778D03*
X0255983Y0060778D03*
X0255983Y0055778D03*
X0255983Y0050778D03*
X0255983Y0045778D03*
X0255983Y0040778D03*
X0255983Y0035778D03*
X0255983Y0030778D03*
X0328817Y0030778D03*
X0328817Y0035778D03*
X0328817Y0040778D03*
X0328817Y0045778D03*
X0328817Y0050778D03*
X0328817Y0055778D03*
X0328817Y0060778D03*
X0328817Y0065778D03*
X0328817Y0070778D03*
X0328817Y0075778D03*
X0328817Y0080778D03*
X0328817Y0085778D03*
X0328817Y0090778D03*
X0328817Y0095778D03*
D35*
X0314841Y0102628D03*
X0309841Y0102628D03*
X0304841Y0102628D03*
X0299841Y0102628D03*
X0294841Y0102628D03*
X0289841Y0102628D03*
X0284841Y0102628D03*
X0279841Y0102628D03*
X0274841Y0102628D03*
X0269841Y0102628D03*
D36*
X0291219Y0061093D03*
D37*
X0342088Y0032937D03*
X0353112Y0032937D03*
D38*
X0314000Y0134137D02*
X0314000Y0140137D01*
X0304000Y0140137D02*
X0304000Y0134137D01*
X0294000Y0134137D02*
X0294000Y0140137D01*
X0284000Y0140137D02*
X0284000Y0134137D01*
X0274000Y0134137D02*
X0274000Y0140137D01*
D39*
X0250000Y0132337D03*
X0256140Y0115847D03*
X0262370Y0107997D03*
X0251200Y0105337D03*
X0277400Y0120937D03*
X0289400Y0121137D03*
X0300200Y0121137D03*
X0294800Y0112137D03*
X0306200Y0112337D03*
X0321000Y0124537D03*
X0283200Y0112137D03*
X0219290Y0090317D03*
X0246800Y0034537D03*
X0338000Y0048737D03*
X0340000Y0058537D03*
X0347000Y0065737D03*
X0266600Y0174137D03*
X0180800Y0174737D03*
D40*
X0241931Y0061943D03*
D41*
X0241931Y0065092D03*
X0241931Y0068242D03*
X0241931Y0071391D03*
X0241931Y0074541D03*
X0241931Y0077691D03*
X0233269Y0077691D03*
X0233269Y0074541D03*
X0233269Y0071391D03*
X0233269Y0068242D03*
X0233269Y0065092D03*
X0233269Y0061943D03*
D42*
X0237600Y0061943D03*
X0237600Y0077691D03*
D43*
X0240061Y0063025D02*
X0240061Y0061254D01*
X0240454Y0060860D01*
X0243801Y0060860D01*
X0243801Y0063025D01*
X0240061Y0063025D01*
X0240061Y0062832D02*
X0243801Y0062832D01*
X0243801Y0062637D02*
X0240061Y0062637D01*
X0240061Y0062441D02*
X0243801Y0062441D01*
X0243801Y0062246D02*
X0240061Y0062246D01*
X0240061Y0062051D02*
X0243801Y0062051D01*
X0243801Y0061855D02*
X0240061Y0061855D01*
X0240061Y0061660D02*
X0243801Y0061660D01*
X0243801Y0061465D02*
X0240061Y0061465D01*
X0240061Y0061269D02*
X0243801Y0061269D01*
X0243801Y0061074D02*
X0240240Y0061074D01*
X0240436Y0060879D02*
X0243801Y0060879D01*
D44*
X0291200Y0061074D02*
X0291200Y0040737D01*
X0301159Y0030778D01*
X0311241Y0030778D01*
X0311400Y0030937D01*
X0311800Y0030937D01*
X0311959Y0030778D01*
X0328817Y0030778D01*
X0328817Y0035778D02*
X0336159Y0035778D01*
X0336200Y0035737D01*
X0312000Y0031137D02*
X0311800Y0030937D01*
X0291200Y0040737D02*
X0281241Y0030778D01*
X0271241Y0030778D01*
X0255983Y0030778D01*
X0271200Y0030737D02*
X0271483Y0030737D01*
X0271600Y0030619D01*
X0271241Y0030778D02*
X0271200Y0030737D01*
X0291219Y0061093D02*
X0291219Y0078278D01*
X0291090Y0078407D01*
X0362546Y0049737D02*
X0369400Y0049737D01*
X0372746Y0053083D01*
X0372746Y0115737D01*
X0372746Y0153190D01*
X0367200Y0158737D01*
X0362054Y0158737D01*
X0361800Y0158483D01*
X0358854Y0158483D01*
X0355000Y0162337D01*
X0354600Y0162737D01*
X0283200Y0163337D02*
X0272600Y0163337D01*
X0272400Y0163137D01*
X0238800Y0140537D02*
X0214000Y0140537D01*
X0192800Y0111409D02*
X0185724Y0111409D01*
X0184937Y0112196D01*
X0184937Y0102946D01*
X0185146Y0102737D01*
X0190000Y0046537D02*
X0190000Y0039606D01*
X0194669Y0034937D01*
X0261000Y0204337D02*
X0261000Y0212937D01*
X0259200Y0214737D01*
X0220600Y0214737D01*
X0215693Y0209830D01*
X0211176Y0209830D01*
D45*
X0287600Y0223175D03*
X0353000Y0111537D03*
X0367600Y0057337D03*
D46*
X0362746Y0057337D01*
X0328817Y0045778D02*
X0324359Y0045778D01*
X0311200Y0058937D01*
X0311200Y0069137D01*
X0288200Y0092137D01*
X0274200Y0092137D02*
X0269600Y0096737D01*
X0269600Y0102387D01*
X0269841Y0102628D01*
X0265960Y0104407D02*
X0262370Y0107997D01*
X0265960Y0104407D02*
X0265960Y0096817D01*
X0269120Y0093657D01*
X0269120Y0073577D01*
X0262600Y0067057D01*
X0262600Y0066937D01*
X0261441Y0065778D01*
X0255983Y0065778D01*
X0255983Y0050778D02*
X0228441Y0050778D01*
X0225400Y0047537D01*
X0236600Y0047337D02*
X0236600Y0046737D01*
X0221060Y0031196D01*
X0203331Y0031196D01*
X0203331Y0038677D02*
X0203331Y0046467D01*
X0203400Y0046537D01*
X0203400Y0046937D01*
X0203000Y0047337D01*
X0203000Y0052790D01*
X0203600Y0053390D01*
X0203600Y0060083D02*
X0203600Y0063337D01*
X0207000Y0066737D01*
X0207000Y0066567D02*
X0207000Y0066537D01*
X0229400Y0091684D02*
X0233261Y0087822D01*
X0241478Y0087822D01*
X0241564Y0087737D01*
X0244400Y0087737D01*
X0246359Y0085778D01*
X0255983Y0085778D01*
X0255983Y0090778D02*
X0242400Y0090778D01*
X0242200Y0090978D01*
X0242200Y0097137D01*
X0250400Y0105337D01*
X0251200Y0105337D01*
X0256140Y0108246D02*
X0256750Y0107636D01*
X0256750Y0096545D01*
X0255983Y0095778D01*
X0242400Y0090778D02*
X0237906Y0090778D01*
X0237000Y0091684D01*
X0229400Y0091684D02*
X0222147Y0091684D01*
X0219290Y0090317D01*
X0219320Y0098440D02*
X0222799Y0098589D01*
X0229400Y0098589D01*
X0237000Y0098589D02*
X0237000Y0106590D01*
X0237146Y0106737D01*
X0243400Y0106937D02*
X0243600Y0107137D01*
X0244200Y0107137D01*
X0250000Y0112937D01*
X0250000Y0132337D01*
X0250500Y0132837D02*
X0249500Y0132837D01*
X0249500Y0138387D01*
X0247494Y0138387D01*
X0243950Y0134843D01*
X0243950Y0132837D01*
X0249500Y0132837D01*
X0249500Y0131837D01*
X0235600Y0131837D01*
X0235613Y0132287D02*
X0238125Y0132287D01*
X0238125Y0139862D01*
X0239475Y0139862D01*
X0239475Y0141212D01*
X0238125Y0141212D01*
X0238125Y0148787D01*
X0235613Y0148787D01*
X0235600Y0148783D01*
X0235600Y0150337D01*
X0238600Y0153337D01*
X0243200Y0153337D01*
X0251200Y0161337D01*
X0251200Y0164537D01*
X0251800Y0165137D01*
X0270000Y0165137D01*
X0275000Y0164937D01*
X0275000Y0154337D01*
X0274668Y0154306D01*
X0274768Y0154681D01*
X0274768Y0156899D01*
X0271184Y0156899D01*
X0271184Y0157267D01*
X0274768Y0157267D01*
X0274768Y0159485D01*
X0274646Y0159943D01*
X0274409Y0160354D01*
X0274074Y0160689D01*
X0273663Y0160926D01*
X0273205Y0161048D01*
X0271184Y0161048D01*
X0271184Y0157267D01*
X0270816Y0157267D01*
X0270816Y0161048D01*
X0268795Y0161048D01*
X0268337Y0160926D01*
X0267926Y0160689D01*
X0267591Y0160354D01*
X0267368Y0159967D01*
X0267258Y0160076D01*
X0266848Y0160313D01*
X0266390Y0160436D01*
X0263680Y0160436D01*
X0263680Y0156556D01*
X0262720Y0156556D01*
X0262720Y0155597D01*
X0258447Y0155597D01*
X0258447Y0153281D01*
X0258570Y0152823D01*
X0258735Y0152537D01*
X0258600Y0152537D01*
X0258400Y0145137D01*
X0258200Y0144537D01*
X0258200Y0125337D01*
X0257800Y0125737D01*
X0235800Y0125737D01*
X0235600Y0125937D01*
X0235600Y0132290D01*
X0235613Y0132287D01*
X0235600Y0130238D02*
X0243950Y0130238D01*
X0243950Y0129831D02*
X0247494Y0126287D01*
X0249500Y0126287D01*
X0249500Y0131837D01*
X0243950Y0131837D01*
X0243950Y0129831D01*
X0245141Y0128640D02*
X0235600Y0128640D01*
X0235600Y0127041D02*
X0246739Y0127041D01*
X0249500Y0127041D02*
X0250500Y0127041D01*
X0250500Y0126287D02*
X0252506Y0126287D01*
X0256050Y0129831D01*
X0256050Y0131837D01*
X0250500Y0131837D01*
X0258200Y0131837D01*
X0258200Y0133435D02*
X0256050Y0133435D01*
X0256050Y0132837D02*
X0256050Y0134843D01*
X0252506Y0138387D01*
X0250500Y0138387D01*
X0250500Y0132837D01*
X0256050Y0132837D01*
X0255859Y0135034D02*
X0258200Y0135034D01*
X0258200Y0136632D02*
X0254260Y0136632D01*
X0252662Y0138231D02*
X0258200Y0138231D01*
X0258200Y0139829D02*
X0243550Y0139829D01*
X0243550Y0139862D02*
X0239475Y0139862D01*
X0239475Y0132287D01*
X0241987Y0132287D01*
X0242445Y0132409D01*
X0242855Y0132646D01*
X0243190Y0132981D01*
X0243427Y0133392D01*
X0243550Y0133850D01*
X0243550Y0139862D01*
X0243550Y0141212D02*
X0243550Y0147224D01*
X0243427Y0147681D01*
X0243190Y0148092D01*
X0242855Y0148427D01*
X0242445Y0148664D01*
X0241987Y0148787D01*
X0239475Y0148787D01*
X0239475Y0141212D01*
X0243550Y0141212D01*
X0243550Y0141428D02*
X0258200Y0141428D01*
X0258200Y0143026D02*
X0243550Y0143026D01*
X0243550Y0144625D02*
X0258229Y0144625D01*
X0258429Y0146223D02*
X0243550Y0146223D01*
X0243346Y0147822D02*
X0258473Y0147822D01*
X0258516Y0149420D02*
X0235600Y0149420D01*
X0236282Y0151019D02*
X0258559Y0151019D01*
X0258689Y0152618D02*
X0237881Y0152618D01*
X0237400Y0157337D02*
X0237454Y0157390D01*
X0237454Y0162737D01*
X0232146Y0162737D01*
X0230346Y0160937D01*
X0230946Y0169337D02*
X0230946Y0176943D01*
X0231540Y0177537D02*
X0231540Y0182277D01*
X0232600Y0183337D01*
X0232600Y0183537D01*
X0233200Y0184137D01*
X0238950Y0186186D02*
X0253400Y0186186D01*
X0253400Y0184588D02*
X0240000Y0184588D01*
X0240000Y0185137D02*
X0235400Y0189737D01*
X0235400Y0189937D01*
X0229200Y0193537D01*
X0217789Y0193733D01*
X0217898Y0194140D01*
X0217898Y0196210D01*
X0217600Y0196210D01*
X0217600Y0196677D01*
X0217898Y0196677D01*
X0217898Y0198748D01*
X0217775Y0199205D01*
X0217700Y0199336D01*
X0217800Y0199537D01*
X0218255Y0200561D01*
X0218255Y0199375D01*
X0218378Y0198917D01*
X0218615Y0198507D01*
X0218950Y0198172D01*
X0219360Y0197935D01*
X0219818Y0197812D01*
X0223980Y0197812D01*
X0223980Y0203537D01*
X0225579Y0203537D01*
X0225579Y0197812D01*
X0229741Y0197812D01*
X0230199Y0197935D01*
X0230609Y0198172D01*
X0230944Y0198507D01*
X0231181Y0198917D01*
X0231304Y0199375D01*
X0231304Y0203537D01*
X0225580Y0203537D01*
X0225580Y0205137D01*
X0231304Y0205137D01*
X0231304Y0209298D01*
X0231181Y0209756D01*
X0230944Y0210166D01*
X0230609Y0210501D01*
X0230199Y0210738D01*
X0229741Y0210861D01*
X0225579Y0210861D01*
X0225579Y0205137D01*
X0223980Y0205137D01*
X0223980Y0210861D01*
X0220826Y0210861D01*
X0221101Y0211137D01*
X0249000Y0211137D01*
X0253400Y0206737D01*
X0253400Y0176537D01*
X0253200Y0176737D01*
X0249168Y0176737D01*
X0249168Y0178683D01*
X0245584Y0178683D01*
X0245584Y0179052D01*
X0245216Y0179052D01*
X0245216Y0183423D01*
X0243195Y0183423D01*
X0242737Y0183301D01*
X0242326Y0183064D01*
X0241991Y0182728D01*
X0241754Y0182318D01*
X0241631Y0181860D01*
X0241631Y0179052D01*
X0245216Y0179052D01*
X0245216Y0178683D01*
X0241631Y0178683D01*
X0241631Y0176737D01*
X0241200Y0176737D01*
X0240000Y0177937D01*
X0240000Y0185137D01*
X0240000Y0182989D02*
X0242252Y0182989D01*
X0241631Y0181391D02*
X0240000Y0181391D01*
X0240000Y0179792D02*
X0241631Y0179792D01*
X0241631Y0178194D02*
X0240000Y0178194D01*
X0245216Y0179792D02*
X0245584Y0179792D01*
X0245584Y0179052D02*
X0245584Y0183423D01*
X0247605Y0183423D01*
X0248063Y0183301D01*
X0248474Y0183064D01*
X0248809Y0182728D01*
X0249046Y0182318D01*
X0249168Y0181860D01*
X0249168Y0179052D01*
X0245584Y0179052D01*
X0245584Y0181391D02*
X0245216Y0181391D01*
X0245216Y0182989D02*
X0245584Y0182989D01*
X0248548Y0182989D02*
X0253400Y0182989D01*
X0253400Y0181391D02*
X0249168Y0181391D01*
X0249168Y0179792D02*
X0253400Y0179792D01*
X0253400Y0178194D02*
X0249168Y0178194D01*
X0253341Y0176595D02*
X0253400Y0176595D01*
X0256800Y0176595D02*
X0260550Y0176595D01*
X0260550Y0176643D02*
X0260550Y0174637D01*
X0266100Y0174637D01*
X0266100Y0180187D01*
X0264094Y0180187D01*
X0260550Y0176643D01*
X0260550Y0174997D02*
X0256800Y0174997D01*
X0256800Y0173398D02*
X0260550Y0173398D01*
X0260550Y0173637D02*
X0260550Y0171631D01*
X0262044Y0170137D01*
X0258600Y0170137D01*
X0256800Y0171937D01*
X0256800Y0197812D01*
X0260200Y0197812D01*
X0260200Y0203537D01*
X0261800Y0203537D01*
X0261800Y0205137D01*
X0260200Y0205137D01*
X0260200Y0210861D01*
X0256885Y0210861D01*
X0257000Y0212937D01*
X0270400Y0212737D01*
X0270600Y0204537D01*
X0274400Y0201337D01*
X0281400Y0194337D01*
X0308800Y0194337D01*
X0308834Y0194370D01*
X0308876Y0194328D01*
X0309286Y0194091D01*
X0309744Y0193968D01*
X0311962Y0193968D01*
X0311962Y0197552D01*
X0312331Y0197552D01*
X0312331Y0197921D01*
X0316112Y0197921D01*
X0316112Y0199942D01*
X0315989Y0200400D01*
X0315795Y0200737D01*
X0342400Y0200737D01*
X0342600Y0200537D01*
X0342600Y0182737D01*
X0330117Y0182737D01*
X0330193Y0182812D01*
X0330430Y0183223D01*
X0330553Y0183681D01*
X0330553Y0185997D01*
X0326280Y0185997D01*
X0326280Y0186956D01*
X0330553Y0186956D01*
X0330553Y0189273D01*
X0330430Y0189731D01*
X0330193Y0190141D01*
X0329858Y0190476D01*
X0329448Y0190713D01*
X0328990Y0190836D01*
X0326280Y0190836D01*
X0326280Y0186956D01*
X0325320Y0186956D01*
X0325320Y0185997D01*
X0321047Y0185997D01*
X0321047Y0183681D01*
X0321170Y0183223D01*
X0321407Y0182812D01*
X0321483Y0182737D01*
X0319517Y0182737D01*
X0319593Y0182812D01*
X0319830Y0183223D01*
X0319953Y0183681D01*
X0319953Y0185997D01*
X0315680Y0185997D01*
X0315680Y0186956D01*
X0319953Y0186956D01*
X0319953Y0189273D01*
X0319830Y0189731D01*
X0319593Y0190141D01*
X0319258Y0190476D01*
X0318848Y0190713D01*
X0318390Y0190836D01*
X0315680Y0190836D01*
X0315680Y0186956D01*
X0314720Y0186956D01*
X0314720Y0185997D01*
X0310447Y0185997D01*
X0310447Y0183681D01*
X0310570Y0183223D01*
X0310807Y0182812D01*
X0311141Y0182478D01*
X0311000Y0182337D01*
X0311000Y0182147D01*
X0310947Y0182094D01*
X0310947Y0182084D01*
X0308010Y0179146D01*
X0307882Y0179274D01*
X0299718Y0179274D01*
X0298980Y0178537D01*
X0297194Y0178537D01*
X0297060Y0178671D01*
X0286140Y0178671D01*
X0286006Y0178537D01*
X0272000Y0178537D01*
X0271600Y0178137D01*
X0271600Y0177693D01*
X0269106Y0180187D01*
X0267100Y0180187D01*
X0267100Y0174637D01*
X0266100Y0174637D01*
X0266100Y0173637D01*
X0260550Y0173637D01*
X0260550Y0171800D02*
X0256937Y0171800D01*
X0258535Y0170201D02*
X0261979Y0170201D01*
X0266100Y0174997D02*
X0267100Y0174997D01*
X0267100Y0176595D02*
X0266100Y0176595D01*
X0266100Y0178194D02*
X0267100Y0178194D01*
X0267100Y0179792D02*
X0266100Y0179792D01*
X0263700Y0179792D02*
X0256800Y0179792D01*
X0256800Y0178194D02*
X0262101Y0178194D01*
X0256800Y0181391D02*
X0272279Y0181391D01*
X0272279Y0181065D02*
X0272401Y0180607D01*
X0272638Y0180197D01*
X0272974Y0179862D01*
X0273384Y0179625D01*
X0273842Y0179502D01*
X0278200Y0179502D01*
X0278200Y0184341D01*
X0272279Y0184341D01*
X0272279Y0181065D01*
X0273094Y0179792D02*
X0269500Y0179792D01*
X0271099Y0178194D02*
X0271657Y0178194D01*
X0272279Y0182989D02*
X0256800Y0182989D01*
X0256800Y0184588D02*
X0278200Y0184588D01*
X0278200Y0184341D02*
X0278200Y0185941D01*
X0278200Y0190779D01*
X0273842Y0190779D01*
X0273384Y0190656D01*
X0272974Y0190419D01*
X0272638Y0190084D01*
X0272401Y0189674D01*
X0272279Y0189216D01*
X0272279Y0185941D01*
X0278200Y0185941D01*
X0279800Y0185941D01*
X0279800Y0190779D01*
X0284158Y0190779D01*
X0284616Y0190656D01*
X0285026Y0190419D01*
X0285137Y0190309D01*
X0285238Y0190484D01*
X0285574Y0190819D01*
X0285984Y0191056D01*
X0286442Y0191179D01*
X0290800Y0191179D01*
X0290800Y0186341D01*
X0292400Y0186341D01*
X0292400Y0191179D01*
X0296758Y0191179D01*
X0297216Y0191056D01*
X0297626Y0190819D01*
X0297962Y0190484D01*
X0298199Y0190074D01*
X0298321Y0189616D01*
X0298321Y0186341D01*
X0292400Y0186341D01*
X0292400Y0184741D01*
X0298321Y0184741D01*
X0298321Y0181465D01*
X0298199Y0181007D01*
X0297962Y0180597D01*
X0297626Y0180262D01*
X0297216Y0180025D01*
X0296758Y0179902D01*
X0292400Y0179902D01*
X0292400Y0184741D01*
X0290800Y0184741D01*
X0284879Y0184741D01*
X0284879Y0184341D01*
X0279800Y0184341D01*
X0279800Y0185941D01*
X0285721Y0185941D01*
X0285721Y0186341D01*
X0290800Y0186341D01*
X0290800Y0184741D01*
X0290800Y0179902D01*
X0286442Y0179902D01*
X0285984Y0180025D01*
X0285574Y0180262D01*
X0285463Y0180372D01*
X0285362Y0180197D01*
X0285026Y0179862D01*
X0284616Y0179625D01*
X0284158Y0179502D01*
X0279800Y0179502D01*
X0279800Y0184341D01*
X0278200Y0184341D01*
X0278200Y0182989D02*
X0279800Y0182989D01*
X0279800Y0181391D02*
X0278200Y0181391D01*
X0278200Y0179792D02*
X0279800Y0179792D01*
X0279800Y0184588D02*
X0284879Y0184588D01*
X0285721Y0186186D02*
X0290800Y0186186D01*
X0290800Y0184588D02*
X0292400Y0184588D01*
X0292400Y0186186D02*
X0303025Y0186186D01*
X0303025Y0186623D02*
X0303025Y0185074D01*
X0298457Y0185074D01*
X0298457Y0182462D01*
X0298579Y0182004D01*
X0298816Y0181594D01*
X0299151Y0181258D01*
X0299562Y0181021D01*
X0300020Y0180899D01*
X0303025Y0180899D01*
X0303025Y0185074D01*
X0304575Y0185074D01*
X0304575Y0186623D01*
X0309143Y0186623D01*
X0309143Y0189235D01*
X0309021Y0189693D01*
X0308784Y0190103D01*
X0308449Y0190438D01*
X0308038Y0190675D01*
X0307580Y0190798D01*
X0304575Y0190798D01*
X0304575Y0186623D01*
X0303025Y0186623D01*
X0298457Y0186623D01*
X0298457Y0189235D01*
X0298579Y0189693D01*
X0298816Y0190103D01*
X0299151Y0190438D01*
X0299562Y0190675D01*
X0300020Y0190798D01*
X0303025Y0190798D01*
X0303025Y0186623D01*
X0303025Y0187785D02*
X0304575Y0187785D01*
X0304575Y0189383D02*
X0303025Y0189383D01*
X0304575Y0186186D02*
X0314720Y0186186D01*
X0314720Y0186956D02*
X0310447Y0186956D01*
X0310447Y0189273D01*
X0310570Y0189731D01*
X0310807Y0190141D01*
X0311142Y0190476D01*
X0311552Y0190713D01*
X0312010Y0190836D01*
X0314720Y0190836D01*
X0314720Y0186956D01*
X0314720Y0187785D02*
X0315680Y0187785D01*
X0315680Y0189383D02*
X0314720Y0189383D01*
X0315680Y0186186D02*
X0325320Y0186186D01*
X0325320Y0186956D02*
X0321047Y0186956D01*
X0321047Y0189273D01*
X0321170Y0189731D01*
X0321407Y0190141D01*
X0321742Y0190476D01*
X0322152Y0190713D01*
X0322610Y0190836D01*
X0325320Y0190836D01*
X0325320Y0186956D01*
X0325320Y0187785D02*
X0326280Y0187785D01*
X0326280Y0189383D02*
X0325320Y0189383D01*
X0326280Y0186186D02*
X0342600Y0186186D01*
X0342600Y0184588D02*
X0330553Y0184588D01*
X0330295Y0182989D02*
X0342600Y0182989D01*
X0342600Y0187785D02*
X0330553Y0187785D01*
X0330523Y0189383D02*
X0342600Y0189383D01*
X0342600Y0190982D02*
X0297345Y0190982D01*
X0298321Y0189383D02*
X0298496Y0189383D01*
X0298457Y0187785D02*
X0298321Y0187785D01*
X0292400Y0187785D02*
X0290800Y0187785D01*
X0290800Y0189383D02*
X0292400Y0189383D01*
X0292400Y0190982D02*
X0290800Y0190982D01*
X0285855Y0190982D02*
X0256800Y0190982D01*
X0256800Y0192580D02*
X0342600Y0192580D01*
X0342600Y0194179D02*
X0315159Y0194179D01*
X0315007Y0194091D02*
X0315417Y0194328D01*
X0315752Y0194663D01*
X0315989Y0195073D01*
X0316112Y0195531D01*
X0316112Y0197552D01*
X0312331Y0197552D01*
X0312331Y0193968D01*
X0314549Y0193968D01*
X0315007Y0194091D01*
X0316112Y0195777D02*
X0342600Y0195777D01*
X0342600Y0197376D02*
X0316112Y0197376D01*
X0316112Y0198974D02*
X0342600Y0198974D01*
X0342564Y0200573D02*
X0315889Y0200573D01*
X0312331Y0197376D02*
X0311962Y0197376D01*
X0311962Y0195777D02*
X0312331Y0195777D01*
X0312331Y0194179D02*
X0311962Y0194179D01*
X0309134Y0194179D02*
X0256800Y0194179D01*
X0256800Y0195777D02*
X0279959Y0195777D01*
X0278361Y0197376D02*
X0256800Y0197376D01*
X0253400Y0197376D02*
X0217898Y0197376D01*
X0217898Y0195777D02*
X0253400Y0195777D01*
X0253400Y0194179D02*
X0217898Y0194179D01*
X0217837Y0198974D02*
X0218363Y0198974D01*
X0223980Y0198974D02*
X0225579Y0198974D01*
X0225579Y0200573D02*
X0223980Y0200573D01*
X0223980Y0202171D02*
X0225579Y0202171D01*
X0225580Y0203770D02*
X0253400Y0203770D01*
X0253400Y0205368D02*
X0231304Y0205368D01*
X0231304Y0206967D02*
X0253170Y0206967D01*
X0251571Y0208565D02*
X0231304Y0208565D01*
X0230946Y0210164D02*
X0249973Y0210164D01*
X0256935Y0211762D02*
X0270424Y0211762D01*
X0270463Y0210164D02*
X0267166Y0210164D01*
X0267165Y0210166D02*
X0266830Y0210501D01*
X0266419Y0210738D01*
X0265961Y0210861D01*
X0261800Y0210861D01*
X0261800Y0205137D01*
X0267524Y0205137D01*
X0267524Y0209298D01*
X0267402Y0209756D01*
X0267165Y0210166D01*
X0267524Y0208565D02*
X0270502Y0208565D01*
X0270541Y0206967D02*
X0267524Y0206967D01*
X0267524Y0205368D02*
X0270580Y0205368D01*
X0271510Y0203770D02*
X0261800Y0203770D01*
X0261800Y0203537D02*
X0267524Y0203537D01*
X0267524Y0199375D01*
X0267402Y0198917D01*
X0267165Y0198507D01*
X0266830Y0198172D01*
X0266419Y0197935D01*
X0265961Y0197812D01*
X0261800Y0197812D01*
X0261800Y0203537D01*
X0261800Y0202171D02*
X0260200Y0202171D01*
X0260200Y0200573D02*
X0261800Y0200573D01*
X0261800Y0198974D02*
X0260200Y0198974D01*
X0253400Y0198974D02*
X0231197Y0198974D01*
X0231304Y0200573D02*
X0253400Y0200573D01*
X0253400Y0202171D02*
X0231304Y0202171D01*
X0225579Y0205368D02*
X0223980Y0205368D01*
X0223980Y0206967D02*
X0225579Y0206967D01*
X0225579Y0208565D02*
X0223980Y0208565D01*
X0223980Y0210164D02*
X0225579Y0210164D01*
X0230847Y0192580D02*
X0253400Y0192580D01*
X0253400Y0190982D02*
X0233600Y0190982D01*
X0235753Y0189383D02*
X0253400Y0189383D01*
X0253400Y0187785D02*
X0237352Y0187785D01*
X0256800Y0187785D02*
X0272279Y0187785D01*
X0272279Y0186186D02*
X0256800Y0186186D01*
X0256800Y0189383D02*
X0272324Y0189383D01*
X0278200Y0189383D02*
X0279800Y0189383D01*
X0279800Y0187785D02*
X0278200Y0187785D01*
X0278200Y0186186D02*
X0279800Y0186186D01*
X0284906Y0179792D02*
X0308656Y0179792D01*
X0308038Y0181021D02*
X0308449Y0181258D01*
X0308784Y0181594D01*
X0309021Y0182004D01*
X0309143Y0182462D01*
X0309143Y0185074D01*
X0304575Y0185074D01*
X0304575Y0180899D01*
X0307580Y0180899D01*
X0308038Y0181021D01*
X0308581Y0181391D02*
X0310254Y0181391D01*
X0310705Y0182989D02*
X0309143Y0182989D01*
X0309143Y0184588D02*
X0310447Y0184588D01*
X0304575Y0184588D02*
X0303025Y0184588D01*
X0303025Y0182989D02*
X0304575Y0182989D01*
X0304575Y0181391D02*
X0303025Y0181391D01*
X0299019Y0181391D02*
X0298301Y0181391D01*
X0298321Y0182989D02*
X0298457Y0182989D01*
X0298457Y0184588D02*
X0298321Y0184588D01*
X0292400Y0182989D02*
X0290800Y0182989D01*
X0290800Y0181391D02*
X0292400Y0181391D01*
X0309143Y0187785D02*
X0310447Y0187785D01*
X0310477Y0189383D02*
X0309104Y0189383D01*
X0319923Y0189383D02*
X0321077Y0189383D01*
X0321047Y0187785D02*
X0319953Y0187785D01*
X0319953Y0184588D02*
X0321047Y0184588D01*
X0321305Y0182989D02*
X0319695Y0182989D01*
X0305454Y0197737D02*
X0300800Y0202390D01*
X0300800Y0204137D01*
X0301843Y0205180D01*
X0304684Y0205180D01*
X0304684Y0207739D02*
X0300602Y0207739D01*
X0292800Y0199937D01*
X0292800Y0209937D02*
X0295720Y0212857D01*
X0304684Y0212857D01*
X0304684Y0215416D02*
X0283880Y0215416D01*
X0279000Y0210537D01*
X0273409Y0202171D02*
X0267524Y0202171D01*
X0267524Y0200573D02*
X0275164Y0200573D01*
X0276762Y0198974D02*
X0267417Y0198974D01*
X0261800Y0205368D02*
X0260200Y0205368D01*
X0260200Y0206967D02*
X0261800Y0206967D01*
X0261800Y0208565D02*
X0260200Y0208565D01*
X0260200Y0210164D02*
X0261800Y0210164D01*
X0279000Y0220537D02*
X0280600Y0218937D01*
X0291200Y0218937D01*
X0292798Y0220534D01*
X0304684Y0220534D01*
X0304684Y0223093D02*
X0287682Y0223093D01*
X0287600Y0223175D01*
X0318800Y0215416D02*
X0327716Y0215416D01*
X0338600Y0213085D02*
X0340349Y0213085D01*
X0342000Y0214737D01*
X0342000Y0217883D01*
X0341946Y0217937D01*
X0275000Y0163807D02*
X0251200Y0163807D01*
X0251200Y0162209D02*
X0275000Y0162209D01*
X0275000Y0160610D02*
X0274152Y0160610D01*
X0274768Y0159012D02*
X0275000Y0159012D01*
X0275000Y0157413D02*
X0274768Y0157413D01*
X0274768Y0155815D02*
X0275000Y0155815D01*
X0271184Y0157413D02*
X0270816Y0157413D01*
X0270816Y0159012D02*
X0271184Y0159012D01*
X0271184Y0160610D02*
X0270816Y0160610D01*
X0267848Y0160610D02*
X0250473Y0160610D01*
X0248875Y0159012D02*
X0258484Y0159012D01*
X0258447Y0158873D02*
X0258447Y0156556D01*
X0262720Y0156556D01*
X0262720Y0160436D01*
X0260010Y0160436D01*
X0259552Y0160313D01*
X0259142Y0160076D01*
X0258807Y0159741D01*
X0258570Y0159331D01*
X0258447Y0158873D01*
X0258447Y0157413D02*
X0247276Y0157413D01*
X0245678Y0155815D02*
X0262720Y0155815D01*
X0262720Y0157413D02*
X0263680Y0157413D01*
X0263680Y0159012D02*
X0262720Y0159012D01*
X0258447Y0154216D02*
X0244079Y0154216D01*
X0239475Y0147822D02*
X0238125Y0147822D01*
X0238125Y0146223D02*
X0239475Y0146223D01*
X0239475Y0144625D02*
X0238125Y0144625D01*
X0238125Y0143026D02*
X0239475Y0143026D01*
X0239475Y0141428D02*
X0238125Y0141428D01*
X0238125Y0139829D02*
X0239475Y0139829D01*
X0239475Y0138231D02*
X0238125Y0138231D01*
X0238125Y0136632D02*
X0239475Y0136632D01*
X0239475Y0135034D02*
X0238125Y0135034D01*
X0238125Y0133435D02*
X0239475Y0133435D01*
X0243439Y0133435D02*
X0243950Y0133435D01*
X0244141Y0135034D02*
X0243550Y0135034D01*
X0243550Y0136632D02*
X0245740Y0136632D01*
X0247338Y0138231D02*
X0243550Y0138231D01*
X0249500Y0138231D02*
X0250500Y0138231D01*
X0250500Y0136632D02*
X0249500Y0136632D01*
X0249500Y0135034D02*
X0250500Y0135034D01*
X0250500Y0133435D02*
X0249500Y0133435D01*
X0250500Y0132837D02*
X0250500Y0131837D01*
X0250500Y0126287D01*
X0250500Y0128640D02*
X0249500Y0128640D01*
X0249500Y0130238D02*
X0250500Y0130238D01*
X0250500Y0131837D02*
X0249500Y0131837D01*
X0253261Y0127041D02*
X0258200Y0127041D01*
X0258200Y0125443D02*
X0258094Y0125443D01*
X0258200Y0128640D02*
X0254859Y0128640D01*
X0256050Y0130238D02*
X0258200Y0130238D01*
X0256140Y0115847D02*
X0256140Y0108246D01*
X0232000Y0114484D02*
X0224199Y0114484D01*
X0224146Y0114537D01*
X0225400Y0107937D02*
X0226600Y0106737D01*
X0230454Y0106737D01*
X0274200Y0092137D02*
X0274200Y0079937D01*
X0317200Y0085737D02*
X0328776Y0085737D01*
X0328817Y0085778D01*
X0353000Y0111537D02*
X0353000Y0112759D01*
X0356860Y0116619D01*
X0279600Y0045937D02*
X0279410Y0045747D01*
X0279410Y0043177D01*
X0276640Y0040407D01*
X0265810Y0040407D01*
X0260439Y0045778D01*
X0255983Y0045778D01*
X0256142Y0045937D01*
X0256064Y0040697D02*
X0256354Y0040407D01*
X0256064Y0040697D02*
X0242730Y0040697D01*
X0240316Y0038283D01*
X0236200Y0038283D01*
X0188000Y0030324D02*
X0184587Y0033737D01*
X0167200Y0033737D01*
X0159600Y0041337D01*
X0159600Y0042537D01*
X0177800Y0038937D02*
X0178000Y0039137D01*
X0178000Y0045196D01*
X0193060Y0164937D02*
X0193060Y0174737D01*
X0192860Y0174937D01*
X0181000Y0174937D01*
X0180800Y0174737D01*
X0230946Y0169337D02*
X0231816Y0170206D01*
X0241660Y0170206D01*
D47*
X0237400Y0157337D03*
X0283200Y0163337D03*
X0276800Y0194537D03*
X0355000Y0162337D03*
X0288200Y0092137D03*
X0279600Y0045937D03*
X0271600Y0030619D03*
X0312000Y0031137D03*
D48*
X0155600Y0069737D02*
X0155600Y0088337D01*
X0173800Y0088337D01*
X0179000Y0082737D01*
X0199800Y0082737D01*
X0200000Y0082137D01*
X0200000Y0082102D01*
X0199836Y0082196D01*
X0199430Y0082305D01*
X0197438Y0082305D01*
X0197438Y0079121D01*
X0196669Y0079121D01*
X0196669Y0078352D01*
X0197438Y0078352D01*
X0197438Y0075168D01*
X0199430Y0075168D01*
X0199836Y0075277D01*
X0200000Y0075372D01*
X0200000Y0073537D01*
X0199850Y0073237D01*
X0186484Y0073237D01*
X0186243Y0073137D01*
X0180600Y0073137D01*
X0180800Y0072937D01*
X0180800Y0064137D01*
X0197600Y0064137D01*
X0198400Y0063937D01*
X0198400Y0051937D01*
X0198000Y0051537D01*
X0191763Y0051537D01*
X0192034Y0051625D01*
X0192778Y0052004D01*
X0193453Y0052494D01*
X0194043Y0053084D01*
X0194533Y0053759D01*
X0194912Y0054502D01*
X0195169Y0055296D01*
X0195300Y0056119D01*
X0195300Y0056137D01*
X0190400Y0056137D01*
X0190400Y0056937D01*
X0189600Y0056937D01*
X0189600Y0061837D01*
X0189583Y0061837D01*
X0188759Y0061706D01*
X0187966Y0061448D01*
X0187222Y0061070D01*
X0186547Y0060579D01*
X0185957Y0059989D01*
X0185467Y0059314D01*
X0185088Y0058571D01*
X0184830Y0057778D01*
X0184700Y0056954D01*
X0184700Y0056937D01*
X0189600Y0056937D01*
X0189600Y0056137D01*
X0184700Y0056137D01*
X0184700Y0056119D01*
X0184830Y0055296D01*
X0185088Y0054502D01*
X0185467Y0053759D01*
X0185957Y0053084D01*
X0186547Y0052494D01*
X0187222Y0052004D01*
X0187966Y0051625D01*
X0188237Y0051537D01*
X0182553Y0051537D01*
X0182553Y0052077D01*
X0178600Y0052077D01*
X0178600Y0053277D01*
X0177400Y0053277D01*
X0177400Y0056836D01*
X0174837Y0056836D01*
X0174430Y0056727D01*
X0174065Y0056516D01*
X0173767Y0056218D01*
X0173556Y0055853D01*
X0173447Y0055446D01*
X0173447Y0053277D01*
X0177400Y0053277D01*
X0177400Y0052077D01*
X0173447Y0052077D01*
X0173447Y0050384D01*
X0170400Y0047337D01*
X0160648Y0047337D01*
X0160841Y0047367D01*
X0161634Y0047625D01*
X0162378Y0048004D01*
X0163053Y0048494D01*
X0163643Y0049084D01*
X0164133Y0049759D01*
X0164512Y0050502D01*
X0164769Y0051296D01*
X0164900Y0052119D01*
X0164900Y0052137D01*
X0160000Y0052137D01*
X0160000Y0052937D01*
X0164900Y0052937D01*
X0164900Y0052954D01*
X0164769Y0053778D01*
X0164512Y0054571D01*
X0164133Y0055314D01*
X0163643Y0055989D01*
X0163053Y0056579D01*
X0162378Y0057070D01*
X0161634Y0057448D01*
X0160841Y0057706D01*
X0160581Y0057747D01*
X0161038Y0057937D01*
X0164800Y0057937D01*
X0166400Y0059537D01*
X0166400Y0065537D01*
X0162200Y0069737D01*
X0155600Y0069737D01*
X0155600Y0070280D02*
X0157641Y0070280D01*
X0157486Y0070370D02*
X0157851Y0070159D01*
X0158258Y0070050D01*
X0162199Y0070050D01*
X0162199Y0078137D01*
X0156869Y0078137D01*
X0156869Y0071439D01*
X0156978Y0071032D01*
X0157188Y0070668D01*
X0157486Y0070370D01*
X0156869Y0071479D02*
X0155600Y0071479D01*
X0155600Y0072677D02*
X0156869Y0072677D01*
X0156869Y0073876D02*
X0155600Y0073876D01*
X0155600Y0075074D02*
X0156869Y0075074D01*
X0156869Y0076273D02*
X0155600Y0076273D01*
X0155600Y0077471D02*
X0156869Y0077471D01*
X0155600Y0078670D02*
X0162199Y0078670D01*
X0162199Y0078137D02*
X0162199Y0079337D01*
X0162199Y0087423D01*
X0158258Y0087423D01*
X0157851Y0087314D01*
X0157486Y0087104D01*
X0157188Y0086806D01*
X0156978Y0086441D01*
X0156869Y0086034D01*
X0156869Y0079337D01*
X0162199Y0079337D01*
X0163399Y0079337D01*
X0163399Y0087423D01*
X0167341Y0087423D01*
X0167747Y0087314D01*
X0168112Y0087104D01*
X0168410Y0086806D01*
X0168621Y0086441D01*
X0168730Y0086034D01*
X0168730Y0079337D01*
X0163399Y0079337D01*
X0163399Y0078137D01*
X0168730Y0078137D01*
X0168730Y0071439D01*
X0168621Y0071032D01*
X0168410Y0070668D01*
X0168112Y0070370D01*
X0167747Y0070159D01*
X0167341Y0070050D01*
X0163399Y0070050D01*
X0163399Y0078137D01*
X0162199Y0078137D01*
X0162199Y0077471D02*
X0163399Y0077471D01*
X0163399Y0076273D02*
X0162199Y0076273D01*
X0162199Y0075074D02*
X0163399Y0075074D01*
X0163399Y0073876D02*
X0162199Y0073876D01*
X0162199Y0072677D02*
X0163399Y0072677D01*
X0163399Y0071479D02*
X0162199Y0071479D01*
X0162199Y0070280D02*
X0163399Y0070280D01*
X0162855Y0069082D02*
X0180800Y0069082D01*
X0180800Y0070280D02*
X0167957Y0070280D01*
X0168730Y0071479D02*
X0180800Y0071479D01*
X0180800Y0072677D02*
X0168730Y0072677D01*
X0168730Y0073876D02*
X0200000Y0073876D01*
X0200000Y0075074D02*
X0192600Y0075074D01*
X0192582Y0075056D02*
X0192880Y0075354D01*
X0193091Y0075719D01*
X0193200Y0076126D01*
X0193200Y0078137D01*
X0187800Y0078137D01*
X0187800Y0079337D01*
X0186600Y0079337D01*
X0186600Y0082737D01*
X0182589Y0082737D01*
X0182182Y0082628D01*
X0181818Y0082417D01*
X0181520Y0082119D01*
X0181309Y0081754D01*
X0181200Y0081347D01*
X0181200Y0079337D01*
X0186600Y0079337D01*
X0186600Y0078137D01*
X0181200Y0078137D01*
X0181200Y0076126D01*
X0181309Y0075719D01*
X0181520Y0075354D01*
X0181818Y0075056D01*
X0182182Y0074846D01*
X0182589Y0074737D01*
X0186600Y0074737D01*
X0186600Y0078137D01*
X0187800Y0078137D01*
X0187800Y0074737D01*
X0191811Y0074737D01*
X0192218Y0074846D01*
X0192582Y0075056D01*
X0193608Y0075786D02*
X0193397Y0076151D01*
X0193288Y0076557D01*
X0193288Y0078352D01*
X0196669Y0078352D01*
X0196669Y0075168D01*
X0194678Y0075168D01*
X0194271Y0075277D01*
X0193906Y0075488D01*
X0193608Y0075786D01*
X0193365Y0076273D02*
X0193200Y0076273D01*
X0193200Y0077471D02*
X0193288Y0077471D01*
X0193288Y0079121D02*
X0196669Y0079121D01*
X0196669Y0082305D01*
X0194678Y0082305D01*
X0194271Y0082196D01*
X0193906Y0081985D01*
X0193608Y0081688D01*
X0193397Y0081323D01*
X0193288Y0080916D01*
X0193288Y0079121D01*
X0193200Y0079337D02*
X0193200Y0081347D01*
X0193091Y0081754D01*
X0192880Y0082119D01*
X0192582Y0082417D01*
X0192218Y0082628D01*
X0191811Y0082737D01*
X0187800Y0082737D01*
X0187800Y0079337D01*
X0193200Y0079337D01*
X0193200Y0079868D02*
X0193288Y0079868D01*
X0193329Y0081067D02*
X0193200Y0081067D01*
X0192734Y0082265D02*
X0194528Y0082265D01*
X0196669Y0082265D02*
X0197438Y0082265D01*
X0197438Y0081067D02*
X0196669Y0081067D01*
X0196669Y0079868D02*
X0197438Y0079868D01*
X0196669Y0078670D02*
X0187800Y0078670D01*
X0187800Y0079868D02*
X0186600Y0079868D01*
X0186600Y0078670D02*
X0163399Y0078670D01*
X0163399Y0079868D02*
X0162199Y0079868D01*
X0162199Y0081067D02*
X0163399Y0081067D01*
X0163399Y0082265D02*
X0162199Y0082265D01*
X0162199Y0083464D02*
X0163399Y0083464D01*
X0163399Y0084662D02*
X0162199Y0084662D01*
X0162199Y0085861D02*
X0163399Y0085861D01*
X0163399Y0087059D02*
X0162199Y0087059D01*
X0157442Y0087059D02*
X0155600Y0087059D01*
X0155600Y0085861D02*
X0156869Y0085861D01*
X0156869Y0084662D02*
X0155600Y0084662D01*
X0155600Y0083464D02*
X0156869Y0083464D01*
X0156869Y0082265D02*
X0155600Y0082265D01*
X0155600Y0081067D02*
X0156869Y0081067D01*
X0156869Y0079868D02*
X0155600Y0079868D01*
X0155600Y0088258D02*
X0173873Y0088258D01*
X0174986Y0087059D02*
X0168157Y0087059D01*
X0168730Y0085861D02*
X0176099Y0085861D01*
X0177212Y0084662D02*
X0168730Y0084662D01*
X0168730Y0083464D02*
X0178325Y0083464D01*
X0181666Y0082265D02*
X0168730Y0082265D01*
X0168730Y0081067D02*
X0181200Y0081067D01*
X0181200Y0079868D02*
X0168730Y0079868D01*
X0168730Y0077471D02*
X0181200Y0077471D01*
X0181200Y0076273D02*
X0168730Y0076273D01*
X0168730Y0075074D02*
X0181800Y0075074D01*
X0186600Y0075074D02*
X0187800Y0075074D01*
X0187800Y0076273D02*
X0186600Y0076273D01*
X0186600Y0077471D02*
X0187800Y0077471D01*
X0187800Y0081067D02*
X0186600Y0081067D01*
X0186600Y0082265D02*
X0187800Y0082265D01*
X0196669Y0077471D02*
X0197438Y0077471D01*
X0197438Y0076273D02*
X0196669Y0076273D01*
X0203746Y0074390D02*
X0203800Y0074337D01*
X0203800Y0073737D01*
X0203600Y0073537D01*
X0203746Y0074390D02*
X0203746Y0078737D01*
X0199957Y0082265D02*
X0199579Y0082265D01*
X0213770Y0081527D02*
X0213820Y0081477D01*
X0218654Y0081477D01*
X0218590Y0081413D01*
X0218590Y0078637D01*
X0219230Y0077997D01*
X0225020Y0077997D01*
X0225466Y0077550D01*
X0225466Y0074507D01*
X0226115Y0073858D01*
X0226115Y0071391D01*
X0226070Y0071347D01*
X0226070Y0066866D01*
X0225960Y0066757D01*
X0227445Y0068242D01*
X0233269Y0068242D01*
X0233269Y0071391D02*
X0226115Y0071391D01*
X0230180Y0075157D02*
X0230830Y0074507D01*
X0233235Y0074507D01*
X0233269Y0074541D01*
X0230180Y0075157D02*
X0230180Y0083047D01*
X0232630Y0085327D02*
X0239870Y0085327D01*
X0241930Y0083267D01*
X0241930Y0077691D01*
X0241931Y0077691D01*
X0241931Y0074541D02*
X0254746Y0074541D01*
X0254876Y0074671D01*
X0255369Y0071391D02*
X0255983Y0070778D01*
X0255369Y0071391D02*
X0241931Y0071391D01*
X0241931Y0068242D02*
X0249825Y0068242D01*
X0251390Y0066677D01*
X0251390Y0056117D01*
X0251340Y0056067D01*
X0248506Y0056067D01*
X0248006Y0055567D01*
X0251340Y0056067D02*
X0255694Y0056067D01*
X0255983Y0055778D01*
X0263140Y0054757D02*
X0263140Y0050747D01*
X0263140Y0050577D01*
X0270160Y0043557D01*
X0264390Y0036707D02*
X0263630Y0036707D01*
X0259930Y0040407D01*
X0256354Y0040407D01*
X0255983Y0040778D01*
X0263200Y0050687D02*
X0263140Y0050747D01*
X0247260Y0065047D02*
X0247210Y0065097D01*
X0246390Y0065097D01*
X0246386Y0065092D01*
X0241931Y0065092D01*
X0233269Y0065092D02*
X0231363Y0065092D01*
X0229035Y0062044D01*
X0224361Y0062044D01*
X0219874Y0058277D01*
X0226566Y0058277D02*
X0226896Y0057947D01*
X0231930Y0057947D01*
X0233269Y0059286D01*
X0233269Y0061943D01*
X0207000Y0066567D02*
X0207000Y0066737D01*
X0198400Y0063089D02*
X0166400Y0063089D01*
X0166400Y0064287D02*
X0180800Y0064287D01*
X0180800Y0065486D02*
X0166400Y0065486D01*
X0165252Y0066685D02*
X0180800Y0066685D01*
X0180800Y0067883D02*
X0164054Y0067883D01*
X0166400Y0061890D02*
X0198400Y0061890D01*
X0198400Y0060692D02*
X0193298Y0060692D01*
X0193453Y0060579D02*
X0192778Y0061070D01*
X0192034Y0061448D01*
X0191241Y0061706D01*
X0190417Y0061837D01*
X0190400Y0061837D01*
X0190400Y0056937D01*
X0195300Y0056937D01*
X0195300Y0056954D01*
X0195169Y0057778D01*
X0194912Y0058571D01*
X0194533Y0059314D01*
X0194043Y0059989D01*
X0193453Y0060579D01*
X0194403Y0059493D02*
X0198400Y0059493D01*
X0198400Y0058295D02*
X0195001Y0058295D01*
X0195277Y0057096D02*
X0198400Y0057096D01*
X0198400Y0055898D02*
X0195265Y0055898D01*
X0194976Y0054699D02*
X0198400Y0054699D01*
X0198400Y0053501D02*
X0194346Y0053501D01*
X0193189Y0052302D02*
X0198400Y0052302D01*
X0203600Y0047137D02*
X0203400Y0046937D01*
X0190400Y0057096D02*
X0189600Y0057096D01*
X0189600Y0058295D02*
X0190400Y0058295D01*
X0190400Y0059493D02*
X0189600Y0059493D01*
X0189600Y0060692D02*
X0190400Y0060692D01*
X0186702Y0060692D02*
X0166400Y0060692D01*
X0166357Y0059493D02*
X0185597Y0059493D01*
X0184999Y0058295D02*
X0165158Y0058295D01*
X0163709Y0055898D02*
X0173582Y0055898D01*
X0173447Y0054699D02*
X0164446Y0054699D01*
X0164813Y0053501D02*
X0173447Y0053501D01*
X0173447Y0051104D02*
X0164707Y0051104D01*
X0164208Y0049905D02*
X0172969Y0049905D01*
X0171770Y0048707D02*
X0163266Y0048707D01*
X0161276Y0047508D02*
X0170572Y0047508D01*
X0177400Y0052302D02*
X0160000Y0052302D01*
X0162325Y0057096D02*
X0184723Y0057096D01*
X0184735Y0055898D02*
X0182418Y0055898D01*
X0182444Y0055853D02*
X0182233Y0056218D01*
X0181935Y0056516D01*
X0181570Y0056727D01*
X0181163Y0056836D01*
X0178600Y0056836D01*
X0178600Y0053277D01*
X0182553Y0053277D01*
X0182553Y0055446D01*
X0182444Y0055853D01*
X0182553Y0054699D02*
X0185024Y0054699D01*
X0185654Y0053501D02*
X0182553Y0053501D01*
X0178600Y0053501D02*
X0177400Y0053501D01*
X0177400Y0054699D02*
X0178600Y0054699D01*
X0178600Y0055898D02*
X0177400Y0055898D01*
X0178600Y0052302D02*
X0186811Y0052302D01*
X0225320Y0081503D02*
X0225500Y0081683D01*
X0225500Y0086687D01*
X0226910Y0088097D01*
X0230070Y0088097D01*
X0232630Y0085327D01*
X0225346Y0081477D02*
X0225320Y0081503D01*
X0249710Y0082337D02*
X0250470Y0082337D01*
X0252029Y0080778D01*
X0255983Y0080778D01*
X0274841Y0102628D02*
X0274841Y0115788D01*
X0271950Y0118679D01*
X0271950Y0125087D01*
X0284000Y0137137D01*
X0274000Y0137137D02*
X0273800Y0137337D01*
X0273800Y0141537D01*
X0271000Y0144337D01*
X0271000Y0150390D01*
X0263200Y0148596D02*
X0263200Y0141337D01*
X0267200Y0137337D01*
X0273800Y0137337D01*
X0294000Y0137137D02*
X0294000Y0133537D01*
X0299400Y0128137D01*
X0300907Y0128137D01*
X0305650Y0123394D01*
X0305650Y0123287D01*
X0313200Y0115737D01*
X0313200Y0109937D01*
X0310000Y0106737D01*
X0310000Y0102787D01*
X0309841Y0102628D01*
X0304841Y0102628D02*
X0304841Y0110978D01*
X0306200Y0112337D01*
X0300250Y0114394D02*
X0300250Y0109879D01*
X0299841Y0109470D01*
X0299841Y0102628D01*
X0294841Y0102628D02*
X0294841Y0112096D01*
X0294800Y0112137D01*
X0294841Y0112096D01*
X0289841Y0109388D02*
X0289350Y0109879D01*
X0289350Y0114394D01*
X0289400Y0114444D01*
X0289400Y0121137D01*
X0300200Y0121137D02*
X0300200Y0114444D01*
X0300250Y0114394D01*
X0289841Y0109388D02*
X0289841Y0102628D01*
X0285000Y0102787D02*
X0284841Y0102628D01*
X0285000Y0102787D02*
X0285000Y0105937D01*
X0283200Y0107737D01*
X0283200Y0112137D01*
X0277400Y0108737D02*
X0279800Y0106337D01*
X0279800Y0102669D01*
X0279841Y0102628D01*
X0277400Y0108737D02*
X0277400Y0120937D01*
X0304000Y0129137D02*
X0304000Y0137137D01*
X0314000Y0137137D02*
X0314000Y0122337D01*
X0335200Y0101137D01*
X0335200Y0092737D01*
X0333200Y0090737D01*
X0328858Y0090737D01*
X0328817Y0090778D01*
X0328776Y0095737D02*
X0324200Y0095737D01*
X0323000Y0096937D01*
X0323000Y0110137D01*
X0304000Y0129137D01*
X0331000Y0111537D02*
X0339400Y0103137D01*
X0339400Y0082337D01*
X0332841Y0075778D01*
X0328817Y0075778D01*
X0329176Y0071137D02*
X0328817Y0070778D01*
X0329176Y0071137D02*
X0333000Y0071137D01*
X0342000Y0080137D01*
X0342000Y0103537D01*
X0334000Y0111537D01*
X0334000Y0164737D01*
X0350200Y0180937D01*
X0350200Y0210737D01*
X0346800Y0214137D01*
X0346800Y0219937D01*
X0345000Y0221737D01*
X0332000Y0221737D01*
X0330798Y0220534D01*
X0327716Y0220534D01*
X0327716Y0217975D02*
X0335215Y0217975D01*
X0335254Y0217937D01*
X0329757Y0223093D02*
X0330924Y0224261D01*
X0345676Y0224261D01*
X0348600Y0221337D01*
X0348600Y0215537D01*
X0352800Y0211337D01*
X0352800Y0180337D01*
X0336400Y0163937D01*
X0336400Y0112337D01*
X0346600Y0102137D01*
X0346600Y0078137D01*
X0334241Y0065778D01*
X0328817Y0065778D01*
X0328976Y0060937D02*
X0328817Y0060778D01*
X0328976Y0060937D02*
X0333400Y0060937D01*
X0338200Y0065737D01*
X0347000Y0065737D01*
X0356054Y0065137D02*
X0356054Y0057337D01*
X0355854Y0057137D01*
X0355854Y0049737D01*
X0347800Y0049737D01*
X0338841Y0040778D01*
X0328817Y0040778D01*
X0338000Y0048737D02*
X0335959Y0050778D01*
X0328817Y0050778D01*
X0328817Y0055778D02*
X0337241Y0055778D01*
X0340000Y0058537D01*
X0362746Y0065137D02*
X0362746Y0072737D01*
X0362746Y0080767D01*
X0360800Y0082713D01*
X0336600Y0085737D02*
X0336600Y0091591D01*
X0337000Y0091991D01*
X0337000Y0102137D01*
X0329000Y0110137D01*
X0329000Y0166741D01*
X0335648Y0173389D01*
X0335644Y0173326D01*
X0335600Y0173282D01*
X0335648Y0173389D02*
X0336165Y0173848D01*
X0336654Y0174337D01*
X0336717Y0174337D01*
X0339945Y0177199D01*
X0345600Y0182854D01*
X0345600Y0202137D01*
X0342557Y0205180D01*
X0342157Y0205180D01*
X0342200Y0205137D01*
X0342157Y0205180D02*
X0327716Y0205180D01*
X0327716Y0207739D02*
X0343598Y0207739D01*
X0348000Y0203537D01*
X0348000Y0181937D01*
X0338046Y0173110D01*
X0338046Y0172983D01*
X0333000Y0167937D01*
X0333000Y0167737D01*
X0331000Y0165737D01*
X0331000Y0111537D01*
X0328817Y0095778D02*
X0328776Y0095737D01*
X0336600Y0085737D02*
X0331641Y0080778D01*
X0328817Y0080778D01*
X0356860Y0126815D02*
X0351400Y0132275D01*
X0351400Y0140937D01*
X0351400Y0150937D02*
X0352254Y0151790D01*
X0361800Y0151790D01*
X0360600Y0150590D01*
X0360600Y0126815D01*
X0338000Y0173063D02*
X0338046Y0173110D01*
X0332000Y0178937D02*
X0325860Y0178937D01*
X0325800Y0178996D01*
X0327716Y0210298D02*
X0343943Y0210298D01*
X0344186Y0210541D01*
X0329757Y0223093D02*
X0327716Y0223093D01*
X0244146Y0167719D02*
X0241660Y0170206D01*
X0244146Y0167719D02*
X0244146Y0162737D01*
X0231453Y0121937D02*
X0224146Y0121937D01*
X0231453Y0121937D02*
X0232000Y0121389D01*
X0225400Y0107937D02*
X0225290Y0107827D01*
X0221220Y0107827D01*
X0219320Y0105927D01*
X0219320Y0105133D01*
X0178454Y0102737D02*
X0172400Y0102737D01*
X0172400Y0102537D01*
D49*
X0213970Y0074537D02*
X0214000Y0074507D01*
X0218774Y0074507D01*
X0218480Y0074213D01*
X0218480Y0066757D01*
X0218430Y0066707D01*
X0213510Y0066707D01*
X0209300Y0062497D01*
X0209300Y0053717D01*
X0209300Y0045341D01*
X0216405Y0037037D01*
X0218500Y0037037D01*
X0219800Y0036937D01*
X0227200Y0031937D02*
X0227546Y0031590D01*
X0236200Y0031590D01*
X0235654Y0032137D01*
X0314800Y0095337D02*
X0315000Y0095137D01*
X0314800Y0095337D02*
X0314800Y0095537D01*
X0314841Y0095578D01*
X0314841Y0102628D01*
X0351000Y0074737D02*
X0352200Y0073537D01*
X0352200Y0073337D01*
X0352800Y0072737D01*
X0356054Y0072737D01*
X0360800Y0104760D02*
X0360800Y0111737D01*
X0364340Y0116619D02*
X0371865Y0116619D01*
X0372746Y0115737D01*
X0315200Y0173337D02*
X0315200Y0178996D01*
X0313460Y0178996D01*
X0309200Y0174737D01*
X0303888Y0174737D01*
X0303800Y0174825D01*
X0302508Y0173533D01*
X0291600Y0173533D01*
X0291200Y0173133D01*
X0291600Y0172733D01*
X0291200Y0173133D02*
X0279000Y0173133D01*
X0314000Y0206737D02*
X0314200Y0206937D01*
X0314200Y0207537D01*
X0314161Y0207575D01*
X0314161Y0210298D01*
X0314400Y0210537D01*
X0314400Y0212337D01*
X0316200Y0214137D01*
X0316200Y0221937D01*
X0312361Y0217975D02*
X0316200Y0214137D01*
X0317480Y0215416D01*
X0318800Y0215416D01*
X0323000Y0211537D02*
X0324320Y0212857D01*
X0327716Y0212857D01*
X0314161Y0210298D02*
X0304684Y0210298D01*
X0304684Y0217975D02*
X0312361Y0217975D01*
X0228400Y0130737D02*
X0228400Y0130137D01*
X0224146Y0125883D01*
X0224146Y0121937D01*
X0360346Y0040337D02*
X0370200Y0040337D01*
X0360400Y0040118D02*
X0360400Y0034937D01*
X0358400Y0032937D01*
X0353112Y0032937D01*
X0360346Y0040171D02*
X0360400Y0040118D01*
X0360346Y0040171D02*
X0360346Y0040337D01*
D50*
X0370200Y0040337D03*
X0351000Y0074737D03*
X0315000Y0095137D03*
X0360800Y0111737D03*
X0315200Y0173337D03*
X0332000Y0178937D03*
X0344186Y0210541D03*
X0338600Y0213085D03*
X0228400Y0130737D03*
X0225400Y0107937D03*
X0230180Y0083047D03*
X0237420Y0082157D03*
X0249710Y0082337D03*
X0247260Y0065047D03*
X0263140Y0054757D03*
X0270160Y0043557D03*
X0264390Y0036707D03*
X0227200Y0031937D03*
X0188000Y0030324D03*
X0213970Y0074537D03*
X0213770Y0081527D03*
D51*
X0237420Y0082157D02*
X0237570Y0082007D01*
X0237570Y0081687D01*
X0237600Y0081657D01*
X0237600Y0077691D01*
X0254666Y0074461D02*
X0254876Y0074671D01*
X0255983Y0075778D01*
X0255449Y0071311D02*
X0255983Y0070778D01*
X0241931Y0061943D02*
X0241931Y0056184D01*
X0241314Y0055567D01*
X0241224Y0055477D01*
X0237470Y0055477D01*
X0237600Y0055607D01*
X0237600Y0061943D01*
X0237470Y0055477D02*
X0231650Y0055477D01*
X0230090Y0053917D01*
X0209500Y0053917D01*
X0209300Y0053717D01*
X0246800Y0034537D02*
X0249641Y0035778D01*
X0255983Y0035778D01*
X0334200Y0035916D02*
X0337539Y0035916D01*
X0337539Y0036664D02*
X0337539Y0033337D01*
X0341688Y0033337D01*
X0341688Y0037880D01*
X0338754Y0037880D01*
X0338398Y0037784D01*
X0338079Y0037600D01*
X0337818Y0037340D01*
X0337634Y0037020D01*
X0337539Y0036664D01*
X0337552Y0036714D02*
X0334200Y0036714D01*
X0334200Y0037513D02*
X0337992Y0037513D01*
X0339600Y0038337D02*
X0347800Y0046537D01*
X0358800Y0046537D01*
X0358800Y0047276D01*
X0358919Y0047395D01*
X0358919Y0052078D01*
X0358800Y0052197D01*
X0358800Y0052537D01*
X0359250Y0052547D01*
X0359077Y0052245D01*
X0358981Y0051889D01*
X0358981Y0050137D01*
X0362146Y0050137D01*
X0362146Y0049337D01*
X0358981Y0049337D01*
X0358981Y0047584D01*
X0359077Y0047228D01*
X0359261Y0046908D01*
X0359521Y0046648D01*
X0359841Y0046464D01*
X0360197Y0046368D01*
X0362146Y0046368D01*
X0362146Y0049337D01*
X0362946Y0049337D01*
X0362946Y0046368D01*
X0364896Y0046368D01*
X0365252Y0046464D01*
X0365571Y0046648D01*
X0365832Y0046908D01*
X0366016Y0047228D01*
X0366112Y0047584D01*
X0366112Y0049337D01*
X0362946Y0049337D01*
X0362946Y0050137D01*
X0366112Y0050137D01*
X0366112Y0051889D01*
X0366016Y0052245D01*
X0365832Y0052565D01*
X0365707Y0052690D01*
X0367800Y0052737D01*
X0368000Y0042937D01*
X0363153Y0042937D01*
X0362885Y0043205D01*
X0357808Y0043205D01*
X0357540Y0042937D01*
X0357071Y0042937D01*
X0356939Y0043165D01*
X0356679Y0043425D01*
X0356359Y0043610D01*
X0356003Y0043705D01*
X0354054Y0043705D01*
X0354054Y0040737D01*
X0353254Y0040737D01*
X0353254Y0043705D01*
X0351304Y0043705D01*
X0350948Y0043610D01*
X0350629Y0043425D01*
X0350368Y0043165D01*
X0350184Y0042845D01*
X0350088Y0042489D01*
X0350088Y0040737D01*
X0353253Y0040737D01*
X0353253Y0039937D01*
X0350088Y0039937D01*
X0350088Y0038184D01*
X0350184Y0037828D01*
X0350200Y0037799D01*
X0348000Y0037737D01*
X0347800Y0037537D01*
X0347800Y0029337D01*
X0346638Y0029337D01*
X0346638Y0032537D01*
X0342488Y0032537D01*
X0342488Y0033337D01*
X0341688Y0033337D01*
X0341688Y0032537D01*
X0337539Y0032537D01*
X0337539Y0029337D01*
X0334400Y0029337D01*
X0334200Y0029537D01*
X0334200Y0037937D01*
X0334600Y0038337D01*
X0339600Y0038337D01*
X0340373Y0039110D02*
X0350088Y0039110D01*
X0350088Y0039908D02*
X0341172Y0039908D01*
X0341970Y0040707D02*
X0353253Y0040707D01*
X0353254Y0041505D02*
X0354054Y0041505D01*
X0354054Y0042304D02*
X0353254Y0042304D01*
X0353254Y0043102D02*
X0354054Y0043102D01*
X0356975Y0043102D02*
X0357706Y0043102D01*
X0362987Y0043102D02*
X0367997Y0043102D01*
X0367980Y0043901D02*
X0345164Y0043901D01*
X0344366Y0043102D02*
X0350332Y0043102D01*
X0350088Y0042304D02*
X0343567Y0042304D01*
X0342769Y0041505D02*
X0350088Y0041505D01*
X0346761Y0045498D02*
X0367948Y0045498D01*
X0367931Y0046296D02*
X0347560Y0046296D01*
X0345963Y0044699D02*
X0367964Y0044699D01*
X0367915Y0047095D02*
X0365940Y0047095D01*
X0366112Y0047893D02*
X0367899Y0047893D01*
X0367883Y0048692D02*
X0366112Y0048692D01*
X0366112Y0050289D02*
X0367850Y0050289D01*
X0367834Y0051087D02*
X0366112Y0051087D01*
X0366112Y0051886D02*
X0367817Y0051886D01*
X0367801Y0052685D02*
X0365712Y0052685D01*
X0367866Y0049490D02*
X0362946Y0049490D01*
X0362946Y0048692D02*
X0362146Y0048692D01*
X0362146Y0049490D02*
X0358919Y0049490D01*
X0358919Y0048692D02*
X0358981Y0048692D01*
X0358981Y0047893D02*
X0358919Y0047893D01*
X0358800Y0047095D02*
X0359153Y0047095D01*
X0362146Y0047095D02*
X0362946Y0047095D01*
X0362946Y0047893D02*
X0362146Y0047893D01*
X0358981Y0050289D02*
X0358919Y0050289D01*
X0358919Y0051087D02*
X0358981Y0051087D01*
X0358981Y0051886D02*
X0358919Y0051886D01*
X0350088Y0038311D02*
X0334575Y0038311D01*
X0334200Y0035117D02*
X0337539Y0035117D01*
X0337539Y0034319D02*
X0334200Y0034319D01*
X0334200Y0033520D02*
X0337539Y0033520D01*
X0337539Y0031923D02*
X0334200Y0031923D01*
X0334200Y0031125D02*
X0337539Y0031125D01*
X0337539Y0030326D02*
X0334200Y0030326D01*
X0334209Y0029528D02*
X0337539Y0029528D01*
X0334200Y0032722D02*
X0341688Y0032722D01*
X0341688Y0033520D02*
X0342488Y0033520D01*
X0342488Y0033337D02*
X0342488Y0037880D01*
X0345422Y0037880D01*
X0345778Y0037784D01*
X0346097Y0037600D01*
X0346358Y0037340D01*
X0346542Y0037020D01*
X0346638Y0036664D01*
X0346638Y0033337D01*
X0342488Y0033337D01*
X0342488Y0032722D02*
X0347800Y0032722D01*
X0347800Y0033520D02*
X0346638Y0033520D01*
X0346638Y0034319D02*
X0347800Y0034319D01*
X0347800Y0035117D02*
X0346638Y0035117D01*
X0346638Y0035916D02*
X0347800Y0035916D01*
X0347800Y0036714D02*
X0346624Y0036714D01*
X0346185Y0037513D02*
X0347800Y0037513D01*
X0342488Y0037513D02*
X0341688Y0037513D01*
X0341688Y0036714D02*
X0342488Y0036714D01*
X0342488Y0035916D02*
X0341688Y0035916D01*
X0341688Y0035117D02*
X0342488Y0035117D01*
X0342488Y0034319D02*
X0341688Y0034319D01*
X0346638Y0031923D02*
X0347800Y0031923D01*
X0347800Y0031125D02*
X0346638Y0031125D01*
X0346638Y0030326D02*
X0347800Y0030326D01*
X0347800Y0029528D02*
X0346638Y0029528D01*
D52*
X0291090Y0078407D03*
X0207000Y0066567D03*
X0225400Y0149537D03*
X0233200Y0184137D03*
X0200400Y0203137D03*
X0200600Y0216537D03*
D53*
X0314000Y0206737D03*
X0316200Y0221937D03*
X0172400Y0102537D03*
X0203600Y0073537D03*
X0203000Y0047337D03*
X0219800Y0036937D03*
X0236600Y0047337D03*
X0274200Y0079937D03*
X0317200Y0085737D03*
X0177800Y0038937D03*
D54*
X0180000Y0084737D02*
X0179000Y0085137D01*
X0179000Y0095337D01*
X0181000Y0097337D01*
X0189400Y0097537D01*
X0199400Y0107937D01*
X0199800Y0116737D01*
X0198800Y0117737D01*
X0188054Y0117737D01*
X0188102Y0117918D01*
X0188102Y0119283D01*
X0185331Y0119283D01*
X0185331Y0120070D01*
X0188102Y0120070D01*
X0188102Y0121435D01*
X0188007Y0121790D01*
X0187824Y0122107D01*
X0187564Y0122367D01*
X0187247Y0122550D01*
X0186892Y0122645D01*
X0185331Y0122645D01*
X0185331Y0120071D01*
X0184543Y0120071D01*
X0184543Y0122645D01*
X0182982Y0122645D01*
X0182627Y0122550D01*
X0182310Y0122367D01*
X0182050Y0122107D01*
X0181867Y0121790D01*
X0181772Y0121435D01*
X0181772Y0120070D01*
X0184543Y0120070D01*
X0184543Y0119283D01*
X0181772Y0119283D01*
X0181772Y0117918D01*
X0181820Y0117737D01*
X0181600Y0117737D01*
X0181200Y0118137D01*
X0181200Y0126937D01*
X0187400Y0133137D01*
X0190000Y0135337D01*
X0190000Y0155337D01*
X0197096Y0160898D01*
X0197125Y0160869D01*
X0197443Y0160685D01*
X0197798Y0160590D01*
X0200146Y0160590D01*
X0200146Y0164543D01*
X0200934Y0164543D01*
X0200934Y0165330D01*
X0204493Y0165330D01*
X0204493Y0168073D01*
X0204398Y0168427D01*
X0204214Y0168745D01*
X0203955Y0169005D01*
X0203637Y0169188D01*
X0203283Y0169283D01*
X0200934Y0169283D01*
X0200934Y0165330D01*
X0200146Y0165330D01*
X0200146Y0169283D01*
X0197798Y0169283D01*
X0197443Y0169188D01*
X0197347Y0169133D01*
X0197337Y0170660D01*
X0197598Y0170590D01*
X0199946Y0170590D01*
X0199946Y0174543D01*
X0200734Y0174543D01*
X0200734Y0175330D01*
X0204293Y0175330D01*
X0204293Y0178073D01*
X0204198Y0178427D01*
X0204014Y0178745D01*
X0203755Y0179005D01*
X0203437Y0179188D01*
X0203083Y0179283D01*
X0200734Y0179283D01*
X0200734Y0175330D01*
X0199946Y0175330D01*
X0199946Y0179283D01*
X0197598Y0179283D01*
X0197281Y0179198D01*
X0197200Y0191537D01*
X0204861Y0191537D01*
X0204861Y0190144D01*
X0210783Y0190144D01*
X0210783Y0189357D01*
X0211570Y0189357D01*
X0211570Y0186290D01*
X0216281Y0186290D01*
X0216636Y0186385D01*
X0216953Y0186569D01*
X0217213Y0186828D01*
X0217396Y0187146D01*
X0217491Y0187500D01*
X0217491Y0189357D01*
X0211570Y0189357D01*
X0211570Y0190144D01*
X0217491Y0190144D01*
X0217491Y0191537D01*
X0227400Y0191537D01*
X0227243Y0181738D01*
X0227157Y0181788D01*
X0226802Y0181883D01*
X0224454Y0181883D01*
X0224454Y0177930D01*
X0223666Y0177930D01*
X0223666Y0177143D01*
X0220107Y0177143D01*
X0220107Y0174400D01*
X0220202Y0174046D01*
X0220386Y0173728D01*
X0220645Y0173469D01*
X0220963Y0173285D01*
X0221317Y0173190D01*
X0223666Y0173190D01*
X0223666Y0177143D01*
X0224454Y0177143D01*
X0224454Y0173190D01*
X0226802Y0173190D01*
X0227107Y0173272D01*
X0227095Y0172524D01*
X0226957Y0172604D01*
X0226602Y0172699D01*
X0224647Y0172699D01*
X0224647Y0169730D01*
X0223860Y0169730D01*
X0223860Y0168943D01*
X0224647Y0168943D01*
X0224647Y0165974D01*
X0226602Y0165974D01*
X0226957Y0166069D01*
X0226992Y0166090D01*
X0226954Y0163727D01*
X0226934Y0163761D01*
X0226675Y0164020D01*
X0226357Y0164204D01*
X0226002Y0164299D01*
X0224047Y0164299D01*
X0224047Y0161330D01*
X0223260Y0161330D01*
X0223260Y0160543D01*
X0224047Y0160543D01*
X0224047Y0157574D01*
X0226002Y0157574D01*
X0226357Y0157669D01*
X0226675Y0157853D01*
X0226863Y0158041D01*
X0226800Y0154137D01*
X0211000Y0153937D01*
X0209400Y0152337D01*
X0209200Y0136337D01*
X0210000Y0135537D01*
X0210200Y0135537D01*
X0210906Y0134830D01*
X0210867Y0134830D01*
X0210512Y0134735D01*
X0210194Y0134552D01*
X0209935Y0134292D01*
X0209751Y0133975D01*
X0209656Y0133620D01*
X0209656Y0131880D01*
X0213606Y0131880D01*
X0213606Y0131093D01*
X0209656Y0131093D01*
X0209656Y0129353D01*
X0209751Y0128999D01*
X0209935Y0128681D01*
X0210194Y0128421D01*
X0210512Y0128238D01*
X0210867Y0128143D01*
X0213606Y0128143D01*
X0213606Y0131093D01*
X0214394Y0131093D01*
X0214394Y0131880D01*
X0218344Y0131880D01*
X0218344Y0133620D01*
X0218249Y0133975D01*
X0218065Y0134292D01*
X0217821Y0134537D01*
X0220600Y0134537D01*
X0220400Y0134337D01*
X0220400Y0125063D01*
X0220157Y0125204D01*
X0219802Y0125299D01*
X0217847Y0125299D01*
X0217847Y0122330D01*
X0217060Y0122330D01*
X0217060Y0121543D01*
X0217847Y0121543D01*
X0217847Y0118574D01*
X0219802Y0118574D01*
X0220157Y0118669D01*
X0220400Y0118810D01*
X0220400Y0117663D01*
X0220157Y0117804D01*
X0219802Y0117899D01*
X0217847Y0117899D01*
X0217847Y0114930D01*
X0217060Y0114930D01*
X0217060Y0114143D01*
X0217847Y0114143D01*
X0217847Y0111174D01*
X0219802Y0111174D01*
X0220157Y0111269D01*
X0220475Y0111453D01*
X0220717Y0111695D01*
X0220800Y0110737D01*
X0214000Y0110737D01*
X0213600Y0110937D01*
X0213200Y0095537D01*
X0203000Y0084537D01*
X0192741Y0084626D01*
X0192899Y0084899D01*
X0192994Y0085253D01*
X0192994Y0087443D01*
X0187594Y0087443D01*
X0187594Y0088230D01*
X0192994Y0088230D01*
X0192994Y0090420D01*
X0192899Y0090775D01*
X0192715Y0091092D01*
X0192456Y0091352D01*
X0192138Y0091535D01*
X0191783Y0091630D01*
X0187594Y0091630D01*
X0187594Y0088230D01*
X0186806Y0088230D01*
X0186806Y0087443D01*
X0181406Y0087443D01*
X0181406Y0085253D01*
X0181501Y0084899D01*
X0181603Y0084723D01*
X0180000Y0084737D01*
X0179000Y0085252D02*
X0181407Y0085252D01*
X0181406Y0086038D02*
X0179000Y0086038D01*
X0179000Y0086824D02*
X0181406Y0086824D01*
X0181406Y0088230D02*
X0186806Y0088230D01*
X0186806Y0091630D01*
X0182617Y0091630D01*
X0182262Y0091535D01*
X0181944Y0091352D01*
X0181685Y0091092D01*
X0181501Y0090775D01*
X0181406Y0090420D01*
X0181406Y0088230D01*
X0181406Y0088396D02*
X0179000Y0088396D01*
X0179000Y0089181D02*
X0181406Y0089181D01*
X0181406Y0089967D02*
X0179000Y0089967D01*
X0179000Y0090753D02*
X0181496Y0090753D01*
X0182277Y0091539D02*
X0179000Y0091539D01*
X0179000Y0092325D02*
X0210222Y0092325D01*
X0209493Y0091539D02*
X0192123Y0091539D01*
X0192904Y0090753D02*
X0208765Y0090753D01*
X0208036Y0089967D02*
X0192994Y0089967D01*
X0192994Y0089181D02*
X0207307Y0089181D01*
X0206578Y0088396D02*
X0192994Y0088396D01*
X0192994Y0086824D02*
X0205121Y0086824D01*
X0205850Y0087610D02*
X0187594Y0087610D01*
X0187594Y0088396D02*
X0186806Y0088396D01*
X0186806Y0089181D02*
X0187594Y0089181D01*
X0187594Y0089967D02*
X0186806Y0089967D01*
X0186806Y0090753D02*
X0187594Y0090753D01*
X0187594Y0091539D02*
X0186806Y0091539D01*
X0186806Y0087610D02*
X0179000Y0087610D01*
X0179000Y0093111D02*
X0210951Y0093111D01*
X0211680Y0093897D02*
X0179000Y0093897D01*
X0179000Y0094683D02*
X0212408Y0094683D01*
X0213137Y0095469D02*
X0179132Y0095469D01*
X0179918Y0096255D02*
X0213219Y0096255D01*
X0213239Y0097041D02*
X0180704Y0097041D01*
X0189679Y0097827D02*
X0213259Y0097827D01*
X0213280Y0098612D02*
X0190434Y0098612D01*
X0191190Y0099398D02*
X0213300Y0099398D01*
X0213321Y0100184D02*
X0191946Y0100184D01*
X0192701Y0100970D02*
X0213341Y0100970D01*
X0213362Y0101756D02*
X0193457Y0101756D01*
X0194213Y0102542D02*
X0213382Y0102542D01*
X0213402Y0103328D02*
X0194969Y0103328D01*
X0195724Y0104114D02*
X0213423Y0104114D01*
X0213443Y0104900D02*
X0196480Y0104900D01*
X0197236Y0105686D02*
X0213464Y0105686D01*
X0213484Y0106472D02*
X0197991Y0106472D01*
X0198747Y0107257D02*
X0213504Y0107257D01*
X0213525Y0108043D02*
X0199405Y0108043D01*
X0199441Y0108829D02*
X0213545Y0108829D01*
X0213566Y0109615D02*
X0199476Y0109615D01*
X0199512Y0110401D02*
X0213586Y0110401D01*
X0214432Y0111453D02*
X0214750Y0111269D01*
X0215105Y0111174D01*
X0217060Y0111174D01*
X0217060Y0114143D01*
X0213894Y0114143D01*
X0213894Y0112385D01*
X0213989Y0112030D01*
X0214173Y0111712D01*
X0214432Y0111453D01*
X0214022Y0111973D02*
X0199583Y0111973D01*
X0199619Y0112759D02*
X0213894Y0112759D01*
X0213894Y0113545D02*
X0199655Y0113545D01*
X0199691Y0114331D02*
X0217060Y0114331D01*
X0217060Y0114930D02*
X0213894Y0114930D01*
X0213894Y0116689D01*
X0213989Y0117043D01*
X0214173Y0117361D01*
X0214432Y0117620D01*
X0214750Y0117804D01*
X0215105Y0117899D01*
X0217060Y0117899D01*
X0217060Y0114930D01*
X0217060Y0115117D02*
X0217847Y0115117D01*
X0217847Y0115903D02*
X0217060Y0115903D01*
X0217060Y0116688D02*
X0217847Y0116688D01*
X0217847Y0117474D02*
X0217060Y0117474D01*
X0217060Y0118574D02*
X0217060Y0121543D01*
X0213894Y0121543D01*
X0213894Y0119785D01*
X0213989Y0119430D01*
X0214173Y0119112D01*
X0214432Y0118853D01*
X0214750Y0118669D01*
X0215105Y0118574D01*
X0217060Y0118574D01*
X0217060Y0119046D02*
X0217847Y0119046D01*
X0217847Y0119832D02*
X0217060Y0119832D01*
X0217060Y0120618D02*
X0217847Y0120618D01*
X0217847Y0121404D02*
X0217060Y0121404D01*
X0217060Y0122190D02*
X0195747Y0122190D01*
X0195733Y0122242D02*
X0195549Y0122560D01*
X0195290Y0122820D01*
X0194972Y0123003D01*
X0194617Y0123098D01*
X0193026Y0123098D01*
X0193026Y0120691D01*
X0192574Y0120691D01*
X0192574Y0123098D01*
X0190983Y0123098D01*
X0190628Y0123003D01*
X0190310Y0122820D01*
X0190051Y0122560D01*
X0189867Y0122242D01*
X0189772Y0121888D01*
X0189772Y0120691D01*
X0192574Y0120691D01*
X0192574Y0120238D01*
X0193026Y0120238D01*
X0193026Y0117830D01*
X0194617Y0117830D01*
X0194972Y0117925D01*
X0195290Y0118109D01*
X0195549Y0118368D01*
X0195733Y0118686D01*
X0195828Y0119041D01*
X0195828Y0120238D01*
X0193026Y0120238D01*
X0193026Y0120691D01*
X0195828Y0120691D01*
X0195828Y0121888D01*
X0195733Y0122242D01*
X0195828Y0121404D02*
X0213894Y0121404D01*
X0213894Y0120618D02*
X0193026Y0120618D01*
X0192574Y0120618D02*
X0188102Y0120618D01*
X0188102Y0121404D02*
X0189772Y0121404D01*
X0189853Y0122190D02*
X0187741Y0122190D01*
X0185331Y0122190D02*
X0184543Y0122190D01*
X0184543Y0121404D02*
X0185331Y0121404D01*
X0185331Y0120618D02*
X0184543Y0120618D01*
X0184543Y0119832D02*
X0181200Y0119832D01*
X0181200Y0119046D02*
X0181772Y0119046D01*
X0181772Y0118260D02*
X0181200Y0118260D01*
X0179600Y0118291D02*
X0179556Y0118367D01*
X0179297Y0118627D01*
X0178979Y0118810D01*
X0178624Y0118905D01*
X0177063Y0118905D01*
X0177063Y0116330D01*
X0176276Y0116330D01*
X0176276Y0118905D01*
X0174714Y0118905D01*
X0174360Y0118810D01*
X0174042Y0118627D01*
X0173782Y0118367D01*
X0173599Y0118049D01*
X0173504Y0117695D01*
X0173504Y0116330D01*
X0176276Y0116330D01*
X0176276Y0115543D01*
X0177063Y0115543D01*
X0177063Y0112968D01*
X0178624Y0112968D01*
X0178979Y0113063D01*
X0179297Y0113247D01*
X0179556Y0113506D01*
X0179600Y0113582D01*
X0179600Y0109137D01*
X0154394Y0109137D01*
X0154394Y0127137D01*
X0179600Y0127137D01*
X0179600Y0118291D01*
X0179600Y0119046D02*
X0167791Y0119046D01*
X0167844Y0118712D02*
X0167695Y0119652D01*
X0167401Y0120557D01*
X0166969Y0121404D01*
X0166410Y0122174D01*
X0165737Y0122846D01*
X0164968Y0123406D01*
X0164120Y0123838D01*
X0163215Y0124131D01*
X0162276Y0124280D01*
X0162194Y0124280D01*
X0162194Y0118630D01*
X0167844Y0118630D01*
X0167844Y0118712D01*
X0167844Y0117843D02*
X0162194Y0117843D01*
X0162194Y0118630D01*
X0161406Y0118630D01*
X0161406Y0117843D01*
X0155756Y0117843D01*
X0155756Y0117761D01*
X0155905Y0116821D01*
X0156199Y0115917D01*
X0156631Y0115069D01*
X0157190Y0114299D01*
X0157863Y0113627D01*
X0158632Y0113068D01*
X0159480Y0112636D01*
X0160385Y0112342D01*
X0161324Y0112193D01*
X0161406Y0112193D01*
X0161406Y0117843D01*
X0162194Y0117843D01*
X0162194Y0112193D01*
X0162276Y0112193D01*
X0163215Y0112342D01*
X0164120Y0112636D01*
X0164968Y0113068D01*
X0165737Y0113627D01*
X0166410Y0114299D01*
X0166969Y0115069D01*
X0167401Y0115917D01*
X0167695Y0116821D01*
X0167844Y0117761D01*
X0167844Y0117843D01*
X0167798Y0117474D02*
X0173504Y0117474D01*
X0173504Y0116688D02*
X0167652Y0116688D01*
X0167394Y0115903D02*
X0176276Y0115903D01*
X0176276Y0115543D02*
X0173504Y0115543D01*
X0173504Y0114178D01*
X0173599Y0113824D01*
X0173782Y0113506D01*
X0174042Y0113247D01*
X0174360Y0113063D01*
X0174714Y0112968D01*
X0176276Y0112968D01*
X0176276Y0115543D01*
X0176276Y0115117D02*
X0177063Y0115117D01*
X0177063Y0114331D02*
X0176276Y0114331D01*
X0176276Y0113545D02*
X0177063Y0113545D01*
X0179579Y0113545D02*
X0179600Y0113545D01*
X0179600Y0112759D02*
X0164362Y0112759D01*
X0165624Y0113545D02*
X0173760Y0113545D01*
X0173504Y0114331D02*
X0166433Y0114331D01*
X0166993Y0115117D02*
X0173504Y0115117D01*
X0173721Y0118260D02*
X0162194Y0118260D01*
X0162194Y0117474D02*
X0161406Y0117474D01*
X0161406Y0116688D02*
X0162194Y0116688D01*
X0162194Y0115903D02*
X0161406Y0115903D01*
X0161406Y0115117D02*
X0162194Y0115117D01*
X0162194Y0114331D02*
X0161406Y0114331D01*
X0161406Y0113545D02*
X0162194Y0113545D01*
X0162194Y0112759D02*
X0161406Y0112759D01*
X0159238Y0112759D02*
X0154394Y0112759D01*
X0154394Y0113545D02*
X0157976Y0113545D01*
X0157167Y0114331D02*
X0154394Y0114331D01*
X0154394Y0115117D02*
X0156607Y0115117D01*
X0156206Y0115903D02*
X0154394Y0115903D01*
X0154394Y0116688D02*
X0155948Y0116688D01*
X0155802Y0117474D02*
X0154394Y0117474D01*
X0154394Y0118260D02*
X0161406Y0118260D01*
X0161406Y0118630D02*
X0155756Y0118630D01*
X0155756Y0118712D01*
X0155905Y0119652D01*
X0156199Y0120557D01*
X0156631Y0121404D01*
X0157190Y0122174D01*
X0157863Y0122846D01*
X0158632Y0123406D01*
X0159480Y0123838D01*
X0160385Y0124131D01*
X0161324Y0124280D01*
X0161406Y0124280D01*
X0161406Y0118630D01*
X0161406Y0119046D02*
X0162194Y0119046D01*
X0162194Y0119832D02*
X0161406Y0119832D01*
X0161406Y0120618D02*
X0162194Y0120618D01*
X0162194Y0121404D02*
X0161406Y0121404D01*
X0161406Y0122190D02*
X0162194Y0122190D01*
X0162194Y0122976D02*
X0161406Y0122976D01*
X0161406Y0123762D02*
X0162194Y0123762D01*
X0164269Y0123762D02*
X0179600Y0123762D01*
X0179600Y0124548D02*
X0154394Y0124548D01*
X0154394Y0125333D02*
X0179600Y0125333D01*
X0179600Y0126119D02*
X0154394Y0126119D01*
X0154394Y0126905D02*
X0179600Y0126905D01*
X0181200Y0126905D02*
X0220400Y0126905D01*
X0220400Y0126119D02*
X0181200Y0126119D01*
X0181200Y0125333D02*
X0220400Y0125333D01*
X0220400Y0127691D02*
X0181955Y0127691D01*
X0182741Y0128477D02*
X0210138Y0128477D01*
X0209680Y0129263D02*
X0183526Y0129263D01*
X0184312Y0130049D02*
X0209656Y0130049D01*
X0209656Y0130835D02*
X0185098Y0130835D01*
X0185884Y0131621D02*
X0213606Y0131621D01*
X0213606Y0130835D02*
X0214394Y0130835D01*
X0214394Y0131093D02*
X0214394Y0128143D01*
X0217133Y0128143D01*
X0217488Y0128238D01*
X0217806Y0128421D01*
X0218065Y0128681D01*
X0218249Y0128999D01*
X0218344Y0129353D01*
X0218344Y0131093D01*
X0214394Y0131093D01*
X0214394Y0131621D02*
X0220400Y0131621D01*
X0220400Y0132407D02*
X0218344Y0132407D01*
X0218344Y0133193D02*
X0220400Y0133193D01*
X0220400Y0133979D02*
X0218246Y0133979D01*
X0218344Y0130835D02*
X0220400Y0130835D01*
X0220400Y0130049D02*
X0218344Y0130049D01*
X0218320Y0129263D02*
X0220400Y0129263D01*
X0220400Y0128477D02*
X0217861Y0128477D01*
X0217060Y0125299D02*
X0215105Y0125299D01*
X0214750Y0125204D01*
X0214432Y0125020D01*
X0214173Y0124761D01*
X0213989Y0124443D01*
X0213894Y0124089D01*
X0213894Y0122330D01*
X0217060Y0122330D01*
X0217060Y0125299D01*
X0217060Y0124548D02*
X0217847Y0124548D01*
X0217847Y0123762D02*
X0217060Y0123762D01*
X0217060Y0122976D02*
X0217847Y0122976D01*
X0213894Y0122976D02*
X0195019Y0122976D01*
X0193026Y0122976D02*
X0192574Y0122976D01*
X0192574Y0122190D02*
X0193026Y0122190D01*
X0193026Y0121404D02*
X0192574Y0121404D01*
X0192574Y0120238D02*
X0189772Y0120238D01*
X0189772Y0119041D01*
X0189867Y0118686D01*
X0190051Y0118368D01*
X0190310Y0118109D01*
X0190628Y0117925D01*
X0190983Y0117830D01*
X0192574Y0117830D01*
X0192574Y0120238D01*
X0192574Y0119832D02*
X0193026Y0119832D01*
X0193026Y0119046D02*
X0192574Y0119046D01*
X0192574Y0118260D02*
X0193026Y0118260D01*
X0195441Y0118260D02*
X0220400Y0118260D01*
X0217847Y0113545D02*
X0217060Y0113545D01*
X0217060Y0112759D02*
X0217847Y0112759D01*
X0217847Y0111973D02*
X0217060Y0111973D01*
X0217060Y0111187D02*
X0217847Y0111187D01*
X0219849Y0111187D02*
X0220761Y0111187D01*
X0215058Y0111187D02*
X0199548Y0111187D01*
X0199726Y0115117D02*
X0213894Y0115117D01*
X0213894Y0115903D02*
X0199762Y0115903D01*
X0199798Y0116688D02*
X0213894Y0116688D01*
X0214286Y0117474D02*
X0199062Y0117474D01*
X0195828Y0119046D02*
X0214239Y0119046D01*
X0213894Y0119832D02*
X0195828Y0119832D01*
X0190159Y0118260D02*
X0188102Y0118260D01*
X0188102Y0119046D02*
X0189772Y0119046D01*
X0189772Y0119832D02*
X0185331Y0119832D01*
X0181772Y0120618D02*
X0181200Y0120618D01*
X0181200Y0121404D02*
X0181772Y0121404D01*
X0182133Y0122190D02*
X0181200Y0122190D01*
X0181200Y0122976D02*
X0190581Y0122976D01*
X0181200Y0123762D02*
X0213894Y0123762D01*
X0214050Y0124548D02*
X0181200Y0124548D01*
X0179600Y0122976D02*
X0165559Y0122976D01*
X0166394Y0122190D02*
X0179600Y0122190D01*
X0179600Y0121404D02*
X0166969Y0121404D01*
X0167370Y0120618D02*
X0179600Y0120618D01*
X0179600Y0119832D02*
X0167636Y0119832D01*
X0176276Y0118260D02*
X0177063Y0118260D01*
X0177063Y0117474D02*
X0176276Y0117474D01*
X0176276Y0116688D02*
X0177063Y0116688D01*
X0179600Y0111973D02*
X0154394Y0111973D01*
X0154394Y0111187D02*
X0179600Y0111187D01*
X0179600Y0110401D02*
X0154394Y0110401D01*
X0154394Y0109615D02*
X0179600Y0109615D01*
X0159331Y0123762D02*
X0154394Y0123762D01*
X0154394Y0122976D02*
X0158041Y0122976D01*
X0157206Y0122190D02*
X0154394Y0122190D01*
X0154394Y0121404D02*
X0156631Y0121404D01*
X0156230Y0120618D02*
X0154394Y0120618D01*
X0154394Y0119832D02*
X0155964Y0119832D01*
X0155809Y0119046D02*
X0154394Y0119046D01*
X0154394Y0128910D02*
X0154394Y0146737D01*
X0161000Y0146737D01*
X0168800Y0154537D01*
X0187600Y0154537D01*
X0187600Y0144537D01*
X0174800Y0128737D01*
X0154394Y0128910D01*
X0154394Y0129263D02*
X0175226Y0129263D01*
X0175863Y0130049D02*
X0154394Y0130049D01*
X0154394Y0130835D02*
X0176500Y0130835D01*
X0177137Y0131621D02*
X0164679Y0131621D01*
X0164968Y0131768D02*
X0165737Y0132327D01*
X0166410Y0132999D01*
X0166969Y0133769D01*
X0167401Y0134617D01*
X0167695Y0135521D01*
X0167844Y0136461D01*
X0167844Y0136543D01*
X0162194Y0136543D01*
X0162194Y0137330D01*
X0167844Y0137330D01*
X0167844Y0137412D01*
X0167695Y0138352D01*
X0167401Y0139257D01*
X0166969Y0140104D01*
X0166410Y0140874D01*
X0165737Y0141546D01*
X0164968Y0142106D01*
X0164120Y0142538D01*
X0163215Y0142831D01*
X0162276Y0142980D01*
X0162194Y0142980D01*
X0162194Y0137330D01*
X0161406Y0137330D01*
X0161406Y0136543D01*
X0155756Y0136543D01*
X0155756Y0136461D01*
X0155905Y0135521D01*
X0156199Y0134617D01*
X0156631Y0133769D01*
X0157190Y0132999D01*
X0157863Y0132327D01*
X0158632Y0131768D01*
X0159480Y0131336D01*
X0160385Y0131042D01*
X0161324Y0130893D01*
X0161406Y0130893D01*
X0161406Y0136543D01*
X0162194Y0136543D01*
X0162194Y0130893D01*
X0162276Y0130893D01*
X0163215Y0131042D01*
X0164120Y0131336D01*
X0164968Y0131768D01*
X0165817Y0132407D02*
X0177773Y0132407D01*
X0178410Y0133193D02*
X0166550Y0133193D01*
X0167076Y0133979D02*
X0179047Y0133979D01*
X0179683Y0134764D02*
X0167449Y0134764D01*
X0167699Y0135550D02*
X0180320Y0135550D01*
X0180957Y0136336D02*
X0167824Y0136336D01*
X0167765Y0137908D02*
X0182230Y0137908D01*
X0181593Y0137122D02*
X0162194Y0137122D01*
X0162194Y0136336D02*
X0161406Y0136336D01*
X0161406Y0135550D02*
X0162194Y0135550D01*
X0162194Y0134764D02*
X0161406Y0134764D01*
X0161406Y0133979D02*
X0162194Y0133979D01*
X0162194Y0133193D02*
X0161406Y0133193D01*
X0161406Y0132407D02*
X0162194Y0132407D01*
X0162194Y0131621D02*
X0161406Y0131621D01*
X0158921Y0131621D02*
X0154394Y0131621D01*
X0154394Y0132407D02*
X0157783Y0132407D01*
X0157050Y0133193D02*
X0154394Y0133193D01*
X0154394Y0133979D02*
X0156524Y0133979D01*
X0156151Y0134764D02*
X0154394Y0134764D01*
X0154394Y0135550D02*
X0155901Y0135550D01*
X0155776Y0136336D02*
X0154394Y0136336D01*
X0154394Y0137122D02*
X0161406Y0137122D01*
X0161406Y0137330D02*
X0155756Y0137330D01*
X0155756Y0137412D01*
X0155905Y0138352D01*
X0156199Y0139257D01*
X0156631Y0140104D01*
X0157190Y0140874D01*
X0157863Y0141546D01*
X0158632Y0142106D01*
X0159480Y0142538D01*
X0160385Y0142831D01*
X0161324Y0142980D01*
X0161406Y0142980D01*
X0161406Y0137330D01*
X0161406Y0137908D02*
X0162194Y0137908D01*
X0162194Y0138694D02*
X0161406Y0138694D01*
X0161406Y0139480D02*
X0162194Y0139480D01*
X0162194Y0140266D02*
X0161406Y0140266D01*
X0161406Y0141052D02*
X0162194Y0141052D01*
X0162194Y0141838D02*
X0161406Y0141838D01*
X0161406Y0142624D02*
X0162194Y0142624D01*
X0163855Y0142624D02*
X0186050Y0142624D01*
X0186687Y0143409D02*
X0154394Y0143409D01*
X0154394Y0142624D02*
X0159745Y0142624D01*
X0158264Y0141838D02*
X0154394Y0141838D01*
X0154394Y0141052D02*
X0157368Y0141052D01*
X0156748Y0140266D02*
X0154394Y0140266D01*
X0154394Y0139480D02*
X0156313Y0139480D01*
X0156016Y0138694D02*
X0154394Y0138694D01*
X0154394Y0137908D02*
X0155835Y0137908D01*
X0165336Y0141838D02*
X0185413Y0141838D01*
X0184777Y0141052D02*
X0166232Y0141052D01*
X0166852Y0140266D02*
X0184140Y0140266D01*
X0183503Y0139480D02*
X0167287Y0139480D01*
X0167584Y0138694D02*
X0182867Y0138694D01*
X0189324Y0134764D02*
X0210621Y0134764D01*
X0209986Y0135550D02*
X0190000Y0135550D01*
X0190000Y0136336D02*
X0209200Y0136336D01*
X0209210Y0137122D02*
X0190000Y0137122D01*
X0190000Y0137908D02*
X0209220Y0137908D01*
X0209229Y0138694D02*
X0190000Y0138694D01*
X0190000Y0139480D02*
X0209239Y0139480D01*
X0209249Y0140266D02*
X0190000Y0140266D01*
X0190000Y0141052D02*
X0209259Y0141052D01*
X0209269Y0141838D02*
X0190000Y0141838D01*
X0190000Y0142624D02*
X0209279Y0142624D01*
X0209288Y0143409D02*
X0190000Y0143409D01*
X0190000Y0144195D02*
X0209298Y0144195D01*
X0209308Y0144981D02*
X0190000Y0144981D01*
X0190000Y0145767D02*
X0209318Y0145767D01*
X0209328Y0146553D02*
X0190000Y0146553D01*
X0190000Y0147339D02*
X0209338Y0147339D01*
X0209347Y0148125D02*
X0190000Y0148125D01*
X0190000Y0148911D02*
X0209357Y0148911D01*
X0209367Y0149697D02*
X0190000Y0149697D01*
X0190000Y0150483D02*
X0209377Y0150483D01*
X0209387Y0151269D02*
X0190000Y0151269D01*
X0190000Y0152055D02*
X0209396Y0152055D01*
X0209904Y0152840D02*
X0190000Y0152840D01*
X0190000Y0153626D02*
X0210690Y0153626D01*
X0203637Y0160685D02*
X0203283Y0160590D01*
X0200934Y0160590D01*
X0200934Y0164543D01*
X0204493Y0164543D01*
X0204493Y0161800D01*
X0204398Y0161446D01*
X0204214Y0161128D01*
X0203955Y0160869D01*
X0203637Y0160685D01*
X0203662Y0160700D02*
X0223260Y0160700D01*
X0223260Y0160543D02*
X0220094Y0160543D01*
X0220094Y0158785D01*
X0220189Y0158430D01*
X0220373Y0158112D01*
X0220632Y0157853D01*
X0220950Y0157669D01*
X0221305Y0157574D01*
X0223260Y0157574D01*
X0223260Y0160543D01*
X0223260Y0159914D02*
X0224047Y0159914D01*
X0224047Y0159128D02*
X0223260Y0159128D01*
X0223260Y0158342D02*
X0224047Y0158342D01*
X0226855Y0157556D02*
X0192831Y0157556D01*
X0191829Y0156770D02*
X0226842Y0156770D01*
X0226830Y0155984D02*
X0190826Y0155984D01*
X0190000Y0155198D02*
X0226817Y0155198D01*
X0226804Y0154412D02*
X0190000Y0154412D01*
X0187600Y0154412D02*
X0168676Y0154412D01*
X0167890Y0153626D02*
X0178792Y0153626D01*
X0178530Y0153493D02*
X0177882Y0153022D01*
X0177315Y0152455D01*
X0176843Y0151806D01*
X0176479Y0151092D01*
X0176232Y0150329D01*
X0176106Y0149538D01*
X0176106Y0149530D01*
X0180806Y0149530D01*
X0180806Y0148743D01*
X0176106Y0148743D01*
X0176106Y0148736D01*
X0176232Y0147944D01*
X0176479Y0147181D01*
X0176843Y0146467D01*
X0177315Y0145818D01*
X0177882Y0145251D01*
X0178530Y0144780D01*
X0179245Y0144416D01*
X0180007Y0144168D01*
X0180799Y0144043D01*
X0180806Y0144043D01*
X0180806Y0148743D01*
X0181594Y0148743D01*
X0181594Y0149530D01*
X0186294Y0149530D01*
X0186294Y0149538D01*
X0186168Y0150329D01*
X0185921Y0151092D01*
X0185557Y0151806D01*
X0185085Y0152455D01*
X0184518Y0153022D01*
X0183870Y0153493D01*
X0183155Y0153857D01*
X0182393Y0154105D01*
X0181601Y0154230D01*
X0181594Y0154230D01*
X0181594Y0149530D01*
X0180806Y0149530D01*
X0180806Y0154230D01*
X0180799Y0154230D01*
X0180007Y0154105D01*
X0179245Y0153857D01*
X0178530Y0153493D01*
X0177700Y0152840D02*
X0167104Y0152840D01*
X0166318Y0152055D02*
X0177024Y0152055D01*
X0176570Y0151269D02*
X0165532Y0151269D01*
X0164746Y0150483D02*
X0176282Y0150483D01*
X0176132Y0149697D02*
X0163960Y0149697D01*
X0163174Y0148911D02*
X0180806Y0148911D01*
X0180806Y0149697D02*
X0181594Y0149697D01*
X0181594Y0150483D02*
X0180806Y0150483D01*
X0180806Y0151269D02*
X0181594Y0151269D01*
X0181594Y0152055D02*
X0180806Y0152055D01*
X0180806Y0152840D02*
X0181594Y0152840D01*
X0181594Y0153626D02*
X0180806Y0153626D01*
X0183608Y0153626D02*
X0187600Y0153626D01*
X0187600Y0152840D02*
X0184700Y0152840D01*
X0185376Y0152055D02*
X0187600Y0152055D01*
X0187600Y0151269D02*
X0185830Y0151269D01*
X0186118Y0150483D02*
X0187600Y0150483D01*
X0187600Y0149697D02*
X0186268Y0149697D01*
X0186294Y0148743D02*
X0181594Y0148743D01*
X0181594Y0144043D01*
X0181601Y0144043D01*
X0182393Y0144168D01*
X0183155Y0144416D01*
X0183870Y0144780D01*
X0184518Y0145251D01*
X0185085Y0145818D01*
X0185557Y0146467D01*
X0185921Y0147181D01*
X0186168Y0147944D01*
X0186294Y0148736D01*
X0186294Y0148743D01*
X0186197Y0148125D02*
X0187600Y0148125D01*
X0187600Y0148911D02*
X0181594Y0148911D01*
X0181594Y0148125D02*
X0180806Y0148125D01*
X0180806Y0147339D02*
X0181594Y0147339D01*
X0181594Y0146553D02*
X0180806Y0146553D01*
X0180806Y0145767D02*
X0181594Y0145767D01*
X0181594Y0144981D02*
X0180806Y0144981D01*
X0180806Y0144195D02*
X0181594Y0144195D01*
X0182476Y0144195D02*
X0187324Y0144195D01*
X0187600Y0144981D02*
X0184147Y0144981D01*
X0185034Y0145767D02*
X0187600Y0145767D01*
X0187600Y0146553D02*
X0185600Y0146553D01*
X0185972Y0147339D02*
X0187600Y0147339D01*
X0179924Y0144195D02*
X0154394Y0144195D01*
X0154394Y0144981D02*
X0178253Y0144981D01*
X0177366Y0145767D02*
X0154394Y0145767D01*
X0154394Y0146553D02*
X0176800Y0146553D01*
X0176428Y0147339D02*
X0161602Y0147339D01*
X0162388Y0148125D02*
X0176203Y0148125D01*
X0193834Y0158342D02*
X0220240Y0158342D01*
X0220094Y0159128D02*
X0194837Y0159128D01*
X0195840Y0159914D02*
X0220094Y0159914D01*
X0220094Y0161330D02*
X0223260Y0161330D01*
X0223260Y0164299D01*
X0221305Y0164299D01*
X0220950Y0164204D01*
X0220632Y0164020D01*
X0220373Y0163761D01*
X0220189Y0163443D01*
X0220094Y0163089D01*
X0220094Y0161330D01*
X0220094Y0161485D02*
X0204409Y0161485D01*
X0204493Y0162271D02*
X0220094Y0162271D01*
X0220094Y0163057D02*
X0204493Y0163057D01*
X0204493Y0163843D02*
X0220455Y0163843D01*
X0221550Y0166069D02*
X0221905Y0165974D01*
X0223860Y0165974D01*
X0223860Y0168943D01*
X0220694Y0168943D01*
X0220694Y0167185D01*
X0220789Y0166830D01*
X0220973Y0166512D01*
X0221232Y0166253D01*
X0221550Y0166069D01*
X0221322Y0166201D02*
X0204493Y0166201D01*
X0204493Y0166987D02*
X0220747Y0166987D01*
X0220694Y0167773D02*
X0204493Y0167773D01*
X0204322Y0168559D02*
X0220694Y0168559D01*
X0220694Y0169730D02*
X0223860Y0169730D01*
X0223860Y0172699D01*
X0221905Y0172699D01*
X0221550Y0172604D01*
X0221232Y0172420D01*
X0220973Y0172161D01*
X0220789Y0171843D01*
X0220694Y0171489D01*
X0220694Y0169730D01*
X0220694Y0170130D02*
X0197341Y0170130D01*
X0197346Y0169345D02*
X0223860Y0169345D01*
X0223860Y0170130D02*
X0224647Y0170130D01*
X0224647Y0170916D02*
X0223860Y0170916D01*
X0223860Y0171702D02*
X0224647Y0171702D01*
X0224647Y0172488D02*
X0223860Y0172488D01*
X0223666Y0173274D02*
X0224454Y0173274D01*
X0224454Y0174060D02*
X0223666Y0174060D01*
X0223666Y0174846D02*
X0224454Y0174846D01*
X0224454Y0175632D02*
X0223666Y0175632D01*
X0223666Y0176418D02*
X0224454Y0176418D01*
X0223666Y0177204D02*
X0204293Y0177204D01*
X0204293Y0177990D02*
X0220107Y0177990D01*
X0220107Y0177930D02*
X0223666Y0177930D01*
X0223666Y0181883D01*
X0221317Y0181883D01*
X0220963Y0181788D01*
X0220645Y0181605D01*
X0220386Y0181345D01*
X0220202Y0181027D01*
X0220107Y0180673D01*
X0220107Y0177930D01*
X0220107Y0178776D02*
X0203984Y0178776D01*
X0204293Y0176418D02*
X0220107Y0176418D01*
X0220107Y0175632D02*
X0204293Y0175632D01*
X0204293Y0174543D02*
X0200734Y0174543D01*
X0200734Y0170590D01*
X0203083Y0170590D01*
X0203437Y0170685D01*
X0203755Y0170869D01*
X0204014Y0171128D01*
X0204198Y0171446D01*
X0204293Y0171800D01*
X0204293Y0174543D01*
X0204293Y0174060D02*
X0220198Y0174060D01*
X0220107Y0174846D02*
X0200734Y0174846D01*
X0200734Y0175632D02*
X0199946Y0175632D01*
X0199946Y0176418D02*
X0200734Y0176418D01*
X0200734Y0177204D02*
X0199946Y0177204D01*
X0199946Y0177990D02*
X0200734Y0177990D01*
X0200734Y0178776D02*
X0199946Y0178776D01*
X0197279Y0179561D02*
X0220107Y0179561D01*
X0220107Y0180347D02*
X0197274Y0180347D01*
X0197268Y0181133D02*
X0220263Y0181133D01*
X0223666Y0181133D02*
X0224454Y0181133D01*
X0224454Y0180347D02*
X0223666Y0180347D01*
X0223666Y0179561D02*
X0224454Y0179561D01*
X0224454Y0178776D02*
X0223666Y0178776D01*
X0223666Y0177990D02*
X0224454Y0177990D01*
X0227246Y0181919D02*
X0197263Y0181919D01*
X0197258Y0182705D02*
X0227258Y0182705D01*
X0227271Y0183491D02*
X0197253Y0183491D01*
X0197248Y0184277D02*
X0227284Y0184277D01*
X0227296Y0185063D02*
X0197243Y0185063D01*
X0197237Y0185849D02*
X0227309Y0185849D01*
X0227321Y0186635D02*
X0217019Y0186635D01*
X0217470Y0187421D02*
X0227334Y0187421D01*
X0227347Y0188206D02*
X0217491Y0188206D01*
X0217491Y0188992D02*
X0227359Y0188992D01*
X0227372Y0189778D02*
X0211570Y0189778D01*
X0211570Y0188992D02*
X0210783Y0188992D01*
X0210783Y0189357D02*
X0210783Y0186290D01*
X0206072Y0186290D01*
X0205717Y0186385D01*
X0205399Y0186569D01*
X0205140Y0186828D01*
X0204956Y0187146D01*
X0204861Y0187500D01*
X0204861Y0189357D01*
X0210783Y0189357D01*
X0210783Y0189778D02*
X0197212Y0189778D01*
X0197217Y0188992D02*
X0204861Y0188992D01*
X0204861Y0188206D02*
X0197222Y0188206D01*
X0197227Y0187421D02*
X0204883Y0187421D01*
X0205333Y0186635D02*
X0197232Y0186635D01*
X0197206Y0190564D02*
X0204861Y0190564D01*
X0204861Y0191350D02*
X0197201Y0191350D01*
X0210783Y0188206D02*
X0211570Y0188206D01*
X0211570Y0187421D02*
X0210783Y0187421D01*
X0210783Y0186635D02*
X0211570Y0186635D01*
X0217491Y0190564D02*
X0227384Y0190564D01*
X0227397Y0191350D02*
X0217491Y0191350D01*
X0221004Y0173274D02*
X0204293Y0173274D01*
X0204293Y0172488D02*
X0221350Y0172488D01*
X0220752Y0171702D02*
X0204267Y0171702D01*
X0203803Y0170916D02*
X0220694Y0170916D01*
X0223860Y0168559D02*
X0224647Y0168559D01*
X0224647Y0167773D02*
X0223860Y0167773D01*
X0223860Y0166987D02*
X0224647Y0166987D01*
X0224647Y0166201D02*
X0223860Y0166201D01*
X0224047Y0163843D02*
X0223260Y0163843D01*
X0223260Y0163057D02*
X0224047Y0163057D01*
X0224047Y0162271D02*
X0223260Y0162271D01*
X0223260Y0161485D02*
X0224047Y0161485D01*
X0226852Y0163843D02*
X0226956Y0163843D01*
X0226968Y0164629D02*
X0200934Y0164629D01*
X0200934Y0163843D02*
X0200146Y0163843D01*
X0200146Y0163057D02*
X0200934Y0163057D01*
X0200934Y0162271D02*
X0200146Y0162271D01*
X0200146Y0161485D02*
X0200934Y0161485D01*
X0200934Y0160700D02*
X0200146Y0160700D01*
X0197418Y0160700D02*
X0196842Y0160700D01*
X0200146Y0165415D02*
X0200934Y0165415D01*
X0200934Y0166201D02*
X0200146Y0166201D01*
X0200146Y0166987D02*
X0200934Y0166987D01*
X0200934Y0167773D02*
X0200146Y0167773D01*
X0200146Y0168559D02*
X0200934Y0168559D01*
X0200734Y0170916D02*
X0199946Y0170916D01*
X0199946Y0171702D02*
X0200734Y0171702D01*
X0200734Y0172488D02*
X0199946Y0172488D01*
X0199946Y0173274D02*
X0200734Y0173274D01*
X0200734Y0174060D02*
X0199946Y0174060D01*
X0204493Y0165415D02*
X0226981Y0165415D01*
X0209754Y0133979D02*
X0188395Y0133979D01*
X0187466Y0133193D02*
X0209656Y0133193D01*
X0209656Y0132407D02*
X0186670Y0132407D01*
X0213606Y0130049D02*
X0214394Y0130049D01*
X0214394Y0129263D02*
X0213606Y0129263D01*
X0213606Y0128477D02*
X0214394Y0128477D01*
X0204392Y0086038D02*
X0192994Y0086038D01*
X0192993Y0085252D02*
X0203663Y0085252D01*
D55*
X0243400Y0106937D03*
D56*
X0225400Y0149537D02*
X0225000Y0149537D01*
X0224950Y0149587D01*
X0214000Y0149587D01*
X0180800Y0174737D02*
X0180800Y0184937D01*
X0181800Y0185937D01*
X0172200Y0203137D02*
X0200200Y0203137D01*
X0200400Y0202937D01*
X0200400Y0203137D01*
X0200400Y0202937D02*
X0200600Y0203137D01*
X0211176Y0203137D01*
X0211176Y0196444D02*
X0221693Y0196444D01*
X0221800Y0196337D01*
X0231540Y0177537D02*
X0230946Y0176943D01*
X0211176Y0216522D02*
X0201014Y0216522D01*
X0201000Y0216537D01*
X0200600Y0216537D01*
X0187600Y0216537D01*
X0187400Y0216337D01*
D57*
X0200400Y0068537D03*
D58*
X0199300Y0069637D01*
X0187200Y0069637D01*
D59*
X0322800Y0200737D02*
X0323000Y0200937D01*
X0323000Y0211537D01*
M02*
